<?xml version="1.0" encoding="UTF-8" standalone="no"?>
<!DOCTYPE svg PUBLIC "-//W3C//DTD SVG 1.1//EN"
 "http://www.w3.org/Graphics/SVG/1.1/DTD/svg11.dtd">
<!-- Generated by graphviz version 2.40.1 (20161225.0304)
 -->
<!-- Title: %3 Pages: 1 -->
<svg width="669pt" height="378pt"
 viewBox="0.00 0.00 669.07 378.00" xmlns="http://www.w3.org/2000/svg" xmlns:xlink="http://www.w3.org/1999/xlink">
<g id="graph0" class="graph" transform="scale(1 1) rotate(0) translate(4 374)">
<title>%3</title>
<polygon fill="#ffffff" stroke="transparent" points="-4,4 -4,-374 665.0692,-374 665.0692,4 -4,4"/>
<!-- fake -->
<g id="node1" class="node">
<title>fake</title>
</g>
<!-- Accelerating_after_crossing_or_turning -->
<g id="node4" class="node">
<title>Accelerating_after_crossing_or_turning</title>
<ellipse fill="none" stroke="#000000" cx="466.083" cy="-279" rx="155.9723" ry="18"/>
<text text-anchor="middle" x="466.083" y="-275.3" font-family="Times,serif" font-size="14.00" fill="#000000">Accelerating_after_crossing_or_turning</text>
</g>
<!-- fake&#45;&gt;Accelerating_after_crossing_or_turning -->
<g id="edge1" class="edge">
<title>fake&#45;&gt;Accelerating_after_crossing_or_turning</title>
<path fill="none" stroke="#000000" stroke-width="2" d="M466.083,-333.9551C466.083,-325.8828 466.083,-316.1764 466.083,-307.1817"/>
<polygon fill="#000000" stroke="#000000" stroke-width="2" points="469.5831,-307.0903 466.083,-297.0904 462.5831,-307.0904 469.5831,-307.0903"/>
</g>
<!-- Car_stopping_at_red_traffic_light_or_traffic_jam -->
<g id="node2" class="node">
<title>Car_stopping_at_red_traffic_light_or_traffic_jam</title>
<ellipse fill="none" stroke="#000000" cx="191.083" cy="-105" rx="191.1661" ry="18"/>
<text text-anchor="middle" x="191.083" y="-101.3" font-family="Times,serif" font-size="14.00" fill="#000000">Car_stopping_at_red_traffic_light_or_traffic_jam</text>
</g>
<!-- Approaching_a_crossroad_or_an_obstacle -->
<g id="node3" class="node">
<title>Approaching_a_crossroad_or_an_obstacle</title>
<ellipse fill="none" stroke="#000000" cx="284.083" cy="-192" rx="165.9709" ry="18"/>
<text text-anchor="middle" x="284.083" y="-188.3" font-family="Times,serif" font-size="14.00" fill="#000000">Approaching_a_crossroad_or_an_obstacle</text>
</g>
<!-- Car_stopping_at_red_traffic_light_or_traffic_jam&#45;&gt;Approaching_a_crossroad_or_an_obstacle -->
<g id="edge6" class="edge">
<title>Car_stopping_at_red_traffic_light_or_traffic_jam&#45;&gt;Approaching_a_crossroad_or_an_obstacle</title>
<path fill="none" stroke="#000000" d="M213.3162,-122.9073C220.1024,-128.5601 227.5057,-134.9196 234.083,-141 242.7271,-148.991 251.8363,-158.0691 259.8769,-166.3289"/>
<polygon fill="#000000" stroke="#000000" points="257.456,-168.8606 266.9167,-173.6299 262.495,-164.0018 257.456,-168.8606"/>
<text text-anchor="middle" x="264.083" y="-144.8" font-family="Times,serif" font-size="14.00" fill="#000000">e_20</text>
</g>
<!-- Car_turning -->
<g id="node5" class="node">
<title>Car_turning</title>
<ellipse fill="none" stroke="#000000" cx="446.083" cy="-18" rx="54.6905" ry="18"/>
<text text-anchor="middle" x="446.083" y="-14.3" font-family="Times,serif" font-size="14.00" fill="#000000">Car_turning</text>
</g>
<!-- Car_stopping_at_red_traffic_light_or_traffic_jam&#45;&gt;Car_turning -->
<g id="edge5" class="edge">
<title>Car_stopping_at_red_traffic_light_or_traffic_jam&#45;&gt;Car_turning</title>
<path fill="none" stroke="#000000" d="M216.9538,-87.1032C233.9358,-76.1031 257.0121,-62.5296 279.083,-54 313.0332,-40.8796 352.8098,-32.0656 385.0253,-26.4443"/>
<polygon fill="#000000" stroke="#000000" points="385.9226,-29.8425 395.2022,-24.73 384.7597,-22.9398 385.9226,-29.8425"/>
<text text-anchor="middle" x="289.583" y="-57.8" font-family="Times,serif" font-size="14.00" fill="#000000">e_6</text>
</g>
<!-- Approaching_a_crossroad_or_an_obstacle&#45;&gt;Car_stopping_at_red_traffic_light_or_traffic_jam -->
<g id="edge8" class="edge">
<title>Approaching_a_crossroad_or_an_obstacle&#45;&gt;Car_stopping_at_red_traffic_light_or_traffic_jam</title>
<path fill="none" stroke="#000000" d="M226.3491,-175.0792C217.1674,-170.1909 208.5734,-163.9482 202.083,-156 196.8464,-149.5871 193.9469,-141.2518 192.3832,-133.1845"/>
<polygon fill="#000000" stroke="#000000" points="195.8516,-132.7141 191.0416,-123.274 188.9148,-133.6532 195.8516,-132.7141"/>
<text text-anchor="middle" x="216.083" y="-144.8" font-family="Times,serif" font-size="14.00" fill="#000000">e_25</text>
</g>
<!-- Approaching_a_crossroad_or_an_obstacle&#45;&gt;Approaching_a_crossroad_or_an_obstacle -->
<g id="edge9" class="edge">
<title>Approaching_a_crossroad_or_an_obstacle&#45;&gt;Approaching_a_crossroad_or_an_obstacle</title>
<path fill="none" stroke="#000000" d="M437.8824,-198.7444C456.0055,-197.5089 467.8183,-195.2607 467.8183,-192 467.8183,-189.4016 460.317,-187.4462 448.0989,-186.1338"/>
<polygon fill="#000000" stroke="#000000" points="448.1454,-182.625 437.8824,-185.2556 447.5459,-189.5993 448.1454,-182.625"/>
<text text-anchor="middle" x="481.8183" y="-188.3" font-family="Times,serif" font-size="14.00" fill="#000000">e_22</text>
</g>
<!-- Approaching_a_crossroad_or_an_obstacle&#45;&gt;Accelerating_after_crossing_or_turning -->
<g id="edge10" class="edge">
<title>Approaching_a_crossroad_or_an_obstacle&#45;&gt;Accelerating_after_crossing_or_turning</title>
<path fill="none" stroke="#000000" d="M320.8587,-209.5796C349.4603,-223.2517 389.3111,-242.3013 420.0337,-256.9874"/>
<polygon fill="#000000" stroke="#000000" points="418.7209,-260.2392 429.2526,-261.3943 421.7399,-253.9236 418.7209,-260.2392"/>
<text text-anchor="middle" x="400.083" y="-231.8" font-family="Times,serif" font-size="14.00" fill="#000000">e_31</text>
</g>
<!-- Approaching_a_crossroad_or_an_obstacle&#45;&gt;Car_turning -->
<g id="edge7" class="edge">
<title>Approaching_a_crossroad_or_an_obstacle&#45;&gt;Car_turning</title>
<path fill="none" stroke="#000000" d="M320.9706,-174.4153C343.3593,-162.3466 371.3287,-144.6225 391.083,-123 411.8794,-100.2369 427.1724,-68.1524 436.2805,-45.4547"/>
<polygon fill="#000000" stroke="#000000" points="439.5728,-46.6448 439.9154,-36.0555 433.044,-44.1199 439.5728,-46.6448"/>
<text text-anchor="middle" x="425.583" y="-101.3" font-family="Times,serif" font-size="14.00" fill="#000000">e_2</text>
</g>
<!-- Accelerating_after_crossing_or_turning&#45;&gt;Approaching_a_crossroad_or_an_obstacle -->
<g id="edge12" class="edge">
<title>Accelerating_after_crossing_or_turning&#45;&gt;Approaching_a_crossroad_or_an_obstacle</title>
<path fill="none" stroke="#000000" d="M382.3908,-263.7579C365.3768,-258.6531 348.1066,-251.9011 333.083,-243 322.1347,-236.5134 312.0201,-226.92 303.8585,-217.7986"/>
<polygon fill="#000000" stroke="#000000" points="306.3634,-215.3416 297.2171,-209.9942 301.0324,-219.8782 306.3634,-215.3416"/>
<text text-anchor="middle" x="347.083" y="-231.8" font-family="Times,serif" font-size="14.00" fill="#000000">e_36</text>
</g>
<!-- Accelerating_after_crossing_or_turning&#45;&gt;Accelerating_after_crossing_or_turning -->
<g id="edge13" class="edge">
<title>Accelerating_after_crossing_or_turning&#45;&gt;Accelerating_after_crossing_or_turning</title>
<path fill="none" stroke="#000000" d="M614.5775,-284.5927C630.1136,-283.501 640.0692,-281.6367 640.0692,-279 640.0692,-277.0019 634.3519,-275.4473 624.8213,-274.3364"/>
<polygon fill="#000000" stroke="#000000" points="624.8528,-270.825 614.5775,-273.4073 624.2204,-277.7964 624.8528,-270.825"/>
<text text-anchor="middle" x="650.5692" y="-275.3" font-family="Times,serif" font-size="14.00" fill="#000000">e_7</text>
</g>
<!-- Accelerating_after_crossing_or_turning&#45;&gt;Car_turning -->
<g id="edge11" class="edge">
<title>Accelerating_after_crossing_or_turning&#45;&gt;Car_turning</title>
<path fill="none" stroke="#000000" d="M479.8301,-260.8131C488.9779,-247.5199 500.1822,-228.6305 505.083,-210 509.1534,-194.5264 507.2299,-189.8553 505.083,-174 497.5945,-118.6937 492.9557,-103.9621 468.083,-54 466.5009,-50.8219 464.7292,-47.5567 462.8965,-44.3514"/>
<polygon fill="#000000" stroke="#000000" points="465.8046,-42.3944 457.6765,-35.5985 459.7925,-45.9799 465.8046,-42.3944"/>
<text text-anchor="middle" x="512.583" y="-144.8" font-family="Times,serif" font-size="14.00" fill="#000000">e_3</text>
</g>
<!-- Car_turning&#45;&gt;Car_stopping_at_red_traffic_light_or_traffic_jam -->
<g id="edge2" class="edge">
<title>Car_turning&#45;&gt;Car_stopping_at_red_traffic_light_or_traffic_jam</title>
<path fill="none" stroke="#000000" d="M408.0415,-30.9789C366.782,-45.0557 300.3296,-67.7277 251.8279,-84.2753"/>
<polygon fill="#000000" stroke="#000000" points="250.4074,-81.0618 242.0732,-87.6033 252.6677,-87.6868 250.4074,-81.0618"/>
<text text-anchor="middle" x="344.583" y="-57.8" font-family="Times,serif" font-size="14.00" fill="#000000">e_1</text>
</g>
<!-- Car_turning&#45;&gt;Approaching_a_crossroad_or_an_obstacle -->
<g id="edge3" class="edge">
<title>Car_turning&#45;&gt;Approaching_a_crossroad_or_an_obstacle</title>
<path fill="none" stroke="#000000" d="M450.8023,-36.0263C457.4168,-65.9284 465.2213,-125.5084 432.083,-156 424.2295,-163.2263 406.6152,-169.4746 386.1759,-174.6432"/>
<polygon fill="#000000" stroke="#000000" points="385.1875,-171.2809 376.2799,-177.0172 386.8205,-178.0878 385.1875,-171.2809"/>
<text text-anchor="middle" x="466.583" y="-101.3" font-family="Times,serif" font-size="14.00" fill="#000000">e_2</text>
</g>
<!-- Car_turning&#45;&gt;Accelerating_after_crossing_or_turning -->
<g id="edge4" class="edge">
<title>Car_turning&#45;&gt;Accelerating_after_crossing_or_turning</title>
<path fill="none" stroke="#000000" d="M494.9719,-26.384C511.1555,-31.6305 527.6719,-40.1546 538.083,-54 561.4198,-85.0347 544.3034,-102.211 546.083,-141 548.1671,-186.4248 563.7371,-205.4551 538.083,-243 534.6484,-248.0267 530.2978,-252.385 525.4424,-256.157"/>
<polygon fill="#000000" stroke="#000000" points="523.1836,-253.4596 516.8672,-261.9657 527.1095,-259.2551 523.1836,-253.4596"/>
<text text-anchor="middle" x="557.583" y="-144.8" font-family="Times,serif" font-size="14.00" fill="#000000">e_8</text>
</g>
</g>
</svg>
