<?xml version="1.0" encoding="UTF-8" standalone="no"?>
<!DOCTYPE svg PUBLIC "-//W3C//DTD SVG 1.1//EN"
 "http://www.w3.org/Graphics/SVG/1.1/DTD/svg11.dtd">
<!-- Generated by graphviz version 2.40.1 (20161225.0304)
 -->
<!-- Title: %3 Pages: 1 -->
<svg width="701pt" height="552pt"
 viewBox="0.00 0.00 700.63 552.00" xmlns="http://www.w3.org/2000/svg" xmlns:xlink="http://www.w3.org/1999/xlink">
<g id="graph0" class="graph" transform="scale(1 1) rotate(0) translate(4 548)">
<title>%3</title>
<polygon fill="#ffffff" stroke="transparent" points="-4,4 -4,-548 696.6269,-548 696.6269,4 -4,4"/>
<!-- fake -->
<g id="node1" class="node">
<title>fake</title>
</g>
<!-- Car_accelerating_after_stopping_at_red_traffic_light_or_traffic_jam -->
<g id="node4" class="node">
<title>Car_accelerating_after_stopping_at_red_traffic_light_or_traffic_jam</title>
<ellipse fill="none" stroke="#000000" cx="393" cy="-453" rx="260.7538" ry="18"/>
<text text-anchor="middle" x="393" y="-449.3" font-family="Times,serif" font-size="14.00" fill="#000000">Car_accelerating_after_stopping_at_red_traffic_light_or_traffic_jam</text>
</g>
<!-- fake&#45;&gt;Car_accelerating_after_stopping_at_red_traffic_light_or_traffic_jam -->
<g id="edge1" class="edge">
<title>fake&#45;&gt;Car_accelerating_after_stopping_at_red_traffic_light_or_traffic_jam</title>
<path fill="none" stroke="#000000" stroke-width="2" d="M393,-507.9551C393,-499.8828 393,-490.1764 393,-481.1817"/>
<polygon fill="#000000" stroke="#000000" stroke-width="2" points="396.5001,-481.0903 393,-471.0904 389.5001,-481.0904 396.5001,-481.0903"/>
</g>
<!-- Car_driving_at_a_constant_speed -->
<g id="node2" class="node">
<title>Car_driving_at_a_constant_speed</title>
<ellipse fill="none" stroke="#000000" cx="452" cy="-279" rx="134.5761" ry="18"/>
<text text-anchor="middle" x="452" y="-275.3" font-family="Times,serif" font-size="14.00" fill="#000000">Car_driving_at_a_constant_speed</text>
</g>
<!-- Approaching_a_crossroad_or_an_obstacle -->
<g id="node3" class="node">
<title>Approaching_a_crossroad_or_an_obstacle</title>
<ellipse fill="none" stroke="#000000" cx="205" cy="-366" rx="165.9709" ry="18"/>
<text text-anchor="middle" x="205" y="-362.3" font-family="Times,serif" font-size="14.00" fill="#000000">Approaching_a_crossroad_or_an_obstacle</text>
</g>
<!-- Car_driving_at_a_constant_speed&#45;&gt;Approaching_a_crossroad_or_an_obstacle -->
<g id="edge4" class="edge">
<title>Car_driving_at_a_constant_speed&#45;&gt;Approaching_a_crossroad_or_an_obstacle</title>
<path fill="none" stroke="#000000" d="M420.7662,-296.6635C400.7362,-307.4331 373.9082,-320.8409 349,-330 330.7726,-336.7025 310.7974,-342.5786 291.6831,-347.5341"/>
<polygon fill="#000000" stroke="#000000" points="290.6151,-344.1939 281.7799,-350.041 292.333,-350.9799 290.6151,-344.1939"/>
<text text-anchor="middle" x="401.5" y="-318.8" font-family="Times,serif" font-size="14.00" fill="#000000">e_102</text>
</g>
<!-- Car_driving_at_a_constant_speed&#45;&gt;Car_accelerating_after_stopping_at_red_traffic_light_or_traffic_jam -->
<g id="edge3" class="edge">
<title>Car_driving_at_a_constant_speed&#45;&gt;Car_accelerating_after_stopping_at_red_traffic_light_or_traffic_jam</title>
<path fill="none" stroke="#000000" d="M448.6718,-297.1643C444.5211,-318.3636 436.6529,-354.303 426,-384 420.8908,-398.2428 413.7915,-413.4775 407.4861,-425.999"/>
<polygon fill="#000000" stroke="#000000" points="404.3263,-424.4904 402.8652,-434.984 410.5513,-427.6919 404.3263,-424.4904"/>
<text text-anchor="middle" x="447.5" y="-362.3" font-family="Times,serif" font-size="14.00" fill="#000000">e_2</text>
</g>
<!-- Braking_before_crossing_or_turning -->
<g id="node7" class="node">
<title>Braking_before_crossing_or_turning</title>
<ellipse fill="none" stroke="#000000" cx="353" cy="-192" rx="145.6742" ry="18"/>
<text text-anchor="middle" x="353" y="-188.3" font-family="Times,serif" font-size="14.00" fill="#000000">Braking_before_crossing_or_turning</text>
</g>
<!-- Car_driving_at_a_constant_speed&#45;&gt;Braking_before_crossing_or_turning -->
<g id="edge2" class="edge">
<title>Car_driving_at_a_constant_speed&#45;&gt;Braking_before_crossing_or_turning</title>
<path fill="none" stroke="#000000" d="M431.4871,-260.9735C416.8856,-248.1419 397.0884,-230.7443 381.0302,-216.6326"/>
<polygon fill="#000000" stroke="#000000" points="383.3087,-213.9755 373.4866,-210.0034 378.6878,-219.2336 383.3087,-213.9755"/>
<text text-anchor="middle" x="419.5" y="-231.8" font-family="Times,serif" font-size="14.00" fill="#000000">e_5</text>
</g>
<!-- Approaching_a_crossroad_or_an_obstacle&#45;&gt;Car_driving_at_a_constant_speed -->
<g id="edge10" class="edge">
<title>Approaching_a_crossroad_or_an_obstacle&#45;&gt;Car_driving_at_a_constant_speed</title>
<path fill="none" stroke="#000000" d="M244.5249,-348.3595C257.4453,-342.5541 271.8519,-336.0395 285,-330 299.2734,-323.4436 302.2422,-320.3781 317,-315 335.2429,-308.3518 355.2764,-302.3414 374.1971,-297.2199"/>
<polygon fill="#000000" stroke="#000000" points="375.2075,-300.573 383.9745,-294.6241 373.4112,-293.8074 375.2075,-300.573"/>
<text text-anchor="middle" x="331" y="-318.8" font-family="Times,serif" font-size="14.00" fill="#000000">e_55</text>
</g>
<!-- Approaching_a_crossroad_or_an_obstacle&#45;&gt;Approaching_a_crossroad_or_an_obstacle -->
<g id="edge13" class="edge">
<title>Approaching_a_crossroad_or_an_obstacle&#45;&gt;Approaching_a_crossroad_or_an_obstacle</title>
<path fill="none" stroke="#000000" d="M358.7993,-372.7444C376.9224,-371.5089 388.7353,-369.2607 388.7353,-366 388.7353,-363.4016 381.234,-361.4462 369.0159,-360.1338"/>
<polygon fill="#000000" stroke="#000000" points="369.0624,-356.625 358.7993,-359.2556 368.4628,-363.5993 369.0624,-356.625"/>
<text text-anchor="middle" x="402.7353" y="-362.3" font-family="Times,serif" font-size="14.00" fill="#000000">e_60</text>
</g>
<!-- Approaching_a_crossroad_or_an_obstacle&#45;&gt;Car_accelerating_after_stopping_at_red_traffic_light_or_traffic_jam -->
<g id="edge12" class="edge">
<title>Approaching_a_crossroad_or_an_obstacle&#45;&gt;Car_accelerating_after_stopping_at_red_traffic_light_or_traffic_jam</title>
<path fill="none" stroke="#000000" d="M218.794,-384.0162C228.1574,-395.0639 241.4487,-408.6456 256,-417 267.0468,-423.3423 279.2319,-428.5919 291.6424,-432.9313"/>
<polygon fill="#000000" stroke="#000000" points="290.5684,-436.2625 301.1616,-436.0752 292.7637,-429.6156 290.5684,-436.2625"/>
<text text-anchor="middle" x="270" y="-405.8" font-family="Times,serif" font-size="14.00" fill="#000000">e_26</text>
</g>
<!-- Car_turning -->
<g id="node5" class="node">
<title>Car_turning</title>
<ellipse fill="none" stroke="#000000" cx="239" cy="-18" rx="54.6905" ry="18"/>
<text text-anchor="middle" x="239" y="-14.3" font-family="Times,serif" font-size="14.00" fill="#000000">Car_turning</text>
</g>
<!-- Approaching_a_crossroad_or_an_obstacle&#45;&gt;Car_turning -->
<g id="edge11" class="edge">
<title>Approaching_a_crossroad_or_an_obstacle&#45;&gt;Car_turning</title>
<path fill="none" stroke="#000000" d="M133.3009,-349.7499C74.1849,-334.2065 0,-308.7703 0,-279 0,-279 0,-279 0,-105 0,-66.9114 108.5363,-40.6488 179.326,-27.5704"/>
<polygon fill="#000000" stroke="#000000" points="180.2604,-30.9583 189.479,-25.7366 179.0162,-24.0698 180.2604,-30.9583"/>
<text text-anchor="middle" x="14" y="-188.3" font-family="Times,serif" font-size="14.00" fill="#000000">e_12</text>
</g>
<!-- Car_stopping_at_red_traffic_light_or_traffic_jam -->
<g id="node6" class="node">
<title>Car_stopping_at_red_traffic_light_or_traffic_jam</title>
<ellipse fill="none" stroke="#000000" cx="283" cy="-105" rx="191.1661" ry="18"/>
<text text-anchor="middle" x="283" y="-101.3" font-family="Times,serif" font-size="14.00" fill="#000000">Car_stopping_at_red_traffic_light_or_traffic_jam</text>
</g>
<!-- Approaching_a_crossroad_or_an_obstacle&#45;&gt;Car_stopping_at_red_traffic_light_or_traffic_jam -->
<g id="edge15" class="edge">
<title>Approaching_a_crossroad_or_an_obstacle&#45;&gt;Car_stopping_at_red_traffic_light_or_traffic_jam</title>
<path fill="none" stroke="#000000" d="M167.7157,-348.4437C159.9993,-343.3941 152.5434,-337.249 147,-330 118.5815,-292.8378 113.5062,-274.1788 121,-228 127.5287,-187.768 120.3643,-168.9814 150,-141 156.7141,-134.6607 171.4746,-128.8708 188.8176,-123.8756"/>
<polygon fill="#000000" stroke="#000000" points="189.9576,-127.1925 198.6837,-121.1837 188.115,-120.4394 189.9576,-127.1925"/>
<text text-anchor="middle" x="131.5" y="-231.8" font-family="Times,serif" font-size="14.00" fill="#000000">e_3</text>
</g>
<!-- Approaching_a_crossroad_or_an_obstacle&#45;&gt;Braking_before_crossing_or_turning -->
<g id="edge14" class="edge">
<title>Approaching_a_crossroad_or_an_obstacle&#45;&gt;Braking_before_crossing_or_turning</title>
<path fill="none" stroke="#000000" d="M204.2087,-347.7765C204.0316,-325.8857 206.2462,-288.6583 221,-261 233.1948,-238.1389 256.0654,-222.6031 279.3864,-212.1605"/>
<polygon fill="#000000" stroke="#000000" points="280.8051,-215.361 288.6735,-208.266 278.098,-208.9056 280.8051,-215.361"/>
<text text-anchor="middle" x="235" y="-275.3" font-family="Times,serif" font-size="14.00" fill="#000000">e_17</text>
</g>
<!-- Car_accelerating_after_stopping_at_red_traffic_light_or_traffic_jam&#45;&gt;Approaching_a_crossroad_or_an_obstacle -->
<g id="edge9" class="edge">
<title>Car_accelerating_after_stopping_at_red_traffic_light_or_traffic_jam&#45;&gt;Approaching_a_crossroad_or_an_obstacle</title>
<path fill="none" stroke="#000000" d="M354.5017,-435.1843C325.0034,-421.5335 284.144,-402.6251 252.5945,-388.0251"/>
<polygon fill="#000000" stroke="#000000" points="253.6704,-384.6664 243.1251,-383.643 250.7305,-391.0192 253.6704,-384.6664"/>
<text text-anchor="middle" x="325" y="-405.8" font-family="Times,serif" font-size="14.00" fill="#000000">e_58</text>
</g>
<!-- Car_accelerating_after_stopping_at_red_traffic_light_or_traffic_jam&#45;&gt;Car_accelerating_after_stopping_at_red_traffic_light_or_traffic_jam -->
<g id="edge8" class="edge">
<title>Car_accelerating_after_stopping_at_red_traffic_light_or_traffic_jam&#45;&gt;Car_accelerating_after_stopping_at_red_traffic_light_or_traffic_jam</title>
<path fill="none" stroke="#000000" d="M644.1813,-457.8729C661.2525,-456.7512 671.6269,-455.127 671.6269,-453 671.6269,-451.3383 665.2948,-449.9834 654.3844,-448.9353"/>
<polygon fill="#000000" stroke="#000000" points="654.4265,-445.4278 644.1813,-448.1271 653.8737,-452.4059 654.4265,-445.4278"/>
<text text-anchor="middle" x="682.1269" y="-449.3" font-family="Times,serif" font-size="14.00" fill="#000000">e_1</text>
</g>
<!-- Car_turning&#45;&gt;Approaching_a_crossroad_or_an_obstacle -->
<g id="edge6" class="edge">
<title>Car_turning&#45;&gt;Approaching_a_crossroad_or_an_obstacle</title>
<path fill="none" stroke="#000000" d="M197.0831,-29.8375C145.3109,-45.7279 64,-75.3967 64,-105 64,-279 64,-279 64,-279 64,-312.1173 92.5202,-333.0435 123.9069,-346.0457"/>
<polygon fill="#000000" stroke="#000000" points="122.6717,-349.3205 133.2608,-349.6685 125.1999,-342.793 122.6717,-349.3205"/>
<text text-anchor="middle" x="78" y="-188.3" font-family="Times,serif" font-size="14.00" fill="#000000">e_20</text>
</g>
<!-- Car_turning&#45;&gt;Car_turning -->
<g id="edge5" class="edge">
<title>Car_turning&#45;&gt;Car_turning</title>
<path fill="none" stroke="#000000" d="M288.1984,-25.8168C301.4862,-25.4044 311.5952,-22.7988 311.5952,-18 311.5952,-14.5134 306.2587,-12.1845 298.2438,-11.0134"/>
<polygon fill="#000000" stroke="#000000" points="298.4527,-7.5188 288.1984,-10.1832 297.8761,-14.495 298.4527,-7.5188"/>
<text text-anchor="middle" x="325.5952" y="-14.3" font-family="Times,serif" font-size="14.00" fill="#000000">e_22</text>
</g>
<!-- Car_turning&#45;&gt;Car_stopping_at_red_traffic_light_or_traffic_jam -->
<g id="edge7" class="edge">
<title>Car_turning&#45;&gt;Car_stopping_at_red_traffic_light_or_traffic_jam</title>
<path fill="none" stroke="#000000" d="M235.7827,-36.3122C234.8622,-46.4245 235.1798,-58.9364 240,-69 241.8453,-72.8526 244.3212,-76.4421 247.1572,-79.7455"/>
<polygon fill="#000000" stroke="#000000" points="244.7661,-82.3045 254.3012,-86.9233 249.7276,-77.3665 244.7661,-82.3045"/>
<text text-anchor="middle" x="250.5" y="-57.8" font-family="Times,serif" font-size="14.00" fill="#000000">e_1</text>
</g>
<!-- Car_stopping_at_red_traffic_light_or_traffic_jam&#45;&gt;Approaching_a_crossroad_or_an_obstacle -->
<g id="edge23" class="edge">
<title>Car_stopping_at_red_traffic_light_or_traffic_jam&#45;&gt;Approaching_a_crossroad_or_an_obstacle</title>
<path fill="none" stroke="#000000" d="M248.7819,-122.7515C230.0435,-134.5155 208.5425,-151.8631 198,-174 172.5678,-227.4019 185.7274,-298.9469 196.2175,-337.8768"/>
<polygon fill="#000000" stroke="#000000" points="192.978,-339.2827 199.0712,-347.95 199.713,-337.3747 192.978,-339.2827"/>
<text text-anchor="middle" x="195.5" y="-231.8" font-family="Times,serif" font-size="14.00" fill="#000000">e_2</text>
</g>
<!-- Car_stopping_at_red_traffic_light_or_traffic_jam&#45;&gt;Car_turning -->
<g id="edge22" class="edge">
<title>Car_stopping_at_red_traffic_light_or_traffic_jam&#45;&gt;Car_turning</title>
<path fill="none" stroke="#000000" d="M275.8708,-86.7736C271.8328,-76.9148 266.4993,-64.6175 261,-54 259.3672,-50.8476 257.5641,-47.5984 255.7136,-44.4021"/>
<polygon fill="#000000" stroke="#000000" points="258.6171,-42.4381 250.4755,-35.6584 252.6122,-46.0355 258.6171,-42.4381"/>
<text text-anchor="middle" x="278.5" y="-57.8" font-family="Times,serif" font-size="14.00" fill="#000000">e_4</text>
</g>
<!-- Car_stopping_at_red_traffic_light_or_traffic_jam&#45;&gt;Braking_before_crossing_or_turning -->
<g id="edge24" class="edge">
<title>Car_stopping_at_red_traffic_light_or_traffic_jam&#45;&gt;Braking_before_crossing_or_turning</title>
<path fill="none" stroke="#000000" d="M303.0455,-122.9115C308.7949,-128.4607 314.8861,-134.7621 320,-141 326.1209,-148.4663 332.0842,-157.1146 337.2198,-165.1447"/>
<polygon fill="#000000" stroke="#000000" points="334.3798,-167.2059 342.6307,-173.8523 340.3254,-163.5113 334.3798,-167.2059"/>
<text text-anchor="middle" x="345" y="-144.8" font-family="Times,serif" font-size="14.00" fill="#000000">e_17</text>
</g>
<!-- Braking_before_crossing_or_turning&#45;&gt;Car_driving_at_a_constant_speed -->
<g id="edge16" class="edge">
<title>Braking_before_crossing_or_turning&#45;&gt;Car_driving_at_a_constant_speed</title>
<path fill="none" stroke="#000000" d="M356.1776,-210.3847C358.8383,-221.0202 363.6068,-234.0316 372,-243 377.1515,-248.5045 383.3018,-253.2262 389.8721,-257.2622"/>
<polygon fill="#000000" stroke="#000000" points="388.5955,-260.5566 399.0375,-262.3497 391.9928,-254.4363 388.5955,-260.5566"/>
<text text-anchor="middle" x="382.5" y="-231.8" font-family="Times,serif" font-size="14.00" fill="#000000">e_2</text>
</g>
<!-- Braking_before_crossing_or_turning&#45;&gt;Approaching_a_crossroad_or_an_obstacle -->
<g id="edge19" class="edge">
<title>Braking_before_crossing_or_turning&#45;&gt;Approaching_a_crossroad_or_an_obstacle</title>
<path fill="none" stroke="#000000" d="M331.8224,-210.0405C316.6608,-223.4144 296.1564,-242.4637 280,-261 258.1367,-286.0839 236.3955,-317.4079 221.995,-339.2863"/>
<polygon fill="#000000" stroke="#000000" points="219.0067,-337.4614 216.4797,-347.7505 224.8715,-341.283 219.0067,-337.4614"/>
<text text-anchor="middle" x="294" y="-275.3" font-family="Times,serif" font-size="14.00" fill="#000000">e_32</text>
</g>
<!-- Braking_before_crossing_or_turning&#45;&gt;Car_accelerating_after_stopping_at_red_traffic_light_or_traffic_jam -->
<g id="edge18" class="edge">
<title>Braking_before_crossing_or_turning&#45;&gt;Car_accelerating_after_stopping_at_red_traffic_light_or_traffic_jam</title>
<path fill="none" stroke="#000000" d="M443.8013,-206.1442C504.7722,-217.7095 577.2621,-236.2007 596,-261 648.8637,-330.9642 525.8515,-397.8554 448.9862,-431.1281"/>
<polygon fill="#000000" stroke="#000000" points="447.2249,-428.0739 439.3942,-435.2105 449.9662,-434.5148 447.2249,-428.0739"/>
<text text-anchor="middle" x="615.5" y="-318.8" font-family="Times,serif" font-size="14.00" fill="#000000">e_1</text>
</g>
<!-- Braking_before_crossing_or_turning&#45;&gt;Car_turning -->
<g id="edge17" class="edge">
<title>Braking_before_crossing_or_turning&#45;&gt;Car_turning</title>
<path fill="none" stroke="#000000" d="M404.1791,-175.0872C451.7633,-156.5742 511.3534,-124.4833 483,-87 460.8791,-57.7561 364.2249,-37.3539 299.4073,-26.6696"/>
<polygon fill="#000000" stroke="#000000" points="299.7239,-23.1755 289.2941,-25.0384 298.6092,-30.0862 299.7239,-23.1755"/>
<text text-anchor="middle" x="501.5" y="-101.3" font-family="Times,serif" font-size="14.00" fill="#000000">e_6</text>
</g>
<!-- Braking_before_crossing_or_turning&#45;&gt;Car_stopping_at_red_traffic_light_or_traffic_jam -->
<g id="edge21" class="edge">
<title>Braking_before_crossing_or_turning&#45;&gt;Car_stopping_at_red_traffic_light_or_traffic_jam</title>
<path fill="none" stroke="#000000" d="M312.2051,-174.6249C304.4684,-169.6417 297.1843,-163.4786 292,-156 287.4412,-149.4236 284.9644,-141.2558 283.6729,-133.3979"/>
<polygon fill="#000000" stroke="#000000" points="287.1469,-132.9677 282.5826,-123.4064 280.1882,-133.7271 287.1469,-132.9677"/>
<text text-anchor="middle" x="306" y="-144.8" font-family="Times,serif" font-size="14.00" fill="#000000">e_16</text>
</g>
<!-- Braking_before_crossing_or_turning&#45;&gt;Braking_before_crossing_or_turning -->
<g id="edge20" class="edge">
<title>Braking_before_crossing_or_turning&#45;&gt;Braking_before_crossing_or_turning</title>
<path fill="none" stroke="#000000" d="M487.4563,-198.9232C504.9846,-197.7325 516.5871,-195.4248 516.5871,-192 516.5871,-189.2976 509.3632,-187.2907 497.7041,-185.9794"/>
<polygon fill="#000000" stroke="#000000" points="497.7248,-182.4677 487.4563,-185.0768 497.1106,-189.4407 497.7248,-182.4677"/>
<text text-anchor="middle" x="530.5871" y="-188.3" font-family="Times,serif" font-size="14.00" fill="#000000">e_10</text>
</g>
</g>
</svg>
