<?xml version="1.0" encoding="UTF-8" standalone="no"?>
<!DOCTYPE svg PUBLIC "-//W3C//DTD SVG 1.1//EN"
 "http://www.w3.org/Graphics/SVG/1.1/DTD/svg11.dtd">
<!-- Generated by graphviz version 2.40.1 (20161225.0304)
 -->
<!-- Title: %3 Pages: 1 -->
<svg width="599pt" height="378pt"
 viewBox="0.00 0.00 598.82 378.00" xmlns="http://www.w3.org/2000/svg" xmlns:xlink="http://www.w3.org/1999/xlink">
<g id="graph0" class="graph" transform="scale(1 1) rotate(0) translate(4 374)">
<title>%3</title>
<polygon fill="#ffffff" stroke="transparent" points="-4,4 -4,-374 594.8183,-374 594.8183,4 -4,4"/>
<!-- fake -->
<g id="node1" class="node">
<title>fake</title>
</g>
<!-- Approaching_a_crossroad_or_an_obstacle -->
<g id="node4" class="node">
<title>Approaching_a_crossroad_or_an_obstacle</title>
<ellipse fill="none" stroke="#000000" cx="386.083" cy="-279" rx="165.9709" ry="18"/>
<text text-anchor="middle" x="386.083" y="-275.3" font-family="Times,serif" font-size="14.00" fill="#000000">Approaching_a_crossroad_or_an_obstacle</text>
</g>
<!-- fake&#45;&gt;Approaching_a_crossroad_or_an_obstacle -->
<g id="edge1" class="edge">
<title>fake&#45;&gt;Approaching_a_crossroad_or_an_obstacle</title>
<path fill="none" stroke="#000000" stroke-width="2" d="M386.083,-333.9551C386.083,-325.8828 386.083,-316.1764 386.083,-307.1817"/>
<polygon fill="#000000" stroke="#000000" stroke-width="2" points="389.5831,-307.0903 386.083,-297.0904 382.5831,-307.0904 389.5831,-307.0903"/>
</g>
<!-- Car_stopping_at_red_traffic_light_or_traffic_jam -->
<g id="node2" class="node">
<title>Car_stopping_at_red_traffic_light_or_traffic_jam</title>
<ellipse fill="none" stroke="#000000" cx="191.083" cy="-192" rx="191.1661" ry="18"/>
<text text-anchor="middle" x="191.083" y="-188.3" font-family="Times,serif" font-size="14.00" fill="#000000">Car_stopping_at_red_traffic_light_or_traffic_jam</text>
</g>
<!-- Car_stopping_at_red_traffic_light_or_traffic_jam&#45;&gt;Car_stopping_at_red_traffic_light_or_traffic_jam -->
<g id="edge2" class="edge">
<title>Car_stopping_at_red_traffic_light_or_traffic_jam&#45;&gt;Car_stopping_at_red_traffic_light_or_traffic_jam</title>
<path fill="none" stroke="#000000" d="M369.1579,-198.5502C388.0422,-197.2801 400.1661,-195.0967 400.1661,-192 400.1661,-189.5081 392.3156,-187.6076 379.4093,-186.2985"/>
<polygon fill="#000000" stroke="#000000" points="379.4126,-182.7869 369.1579,-185.4498 378.8349,-189.763 379.4126,-182.7869"/>
<text text-anchor="middle" x="410.6661" y="-188.3" font-family="Times,serif" font-size="14.00" fill="#000000">e_8</text>
</g>
<!-- Accelerating_after_crossing_or_turning -->
<g id="node3" class="node">
<title>Accelerating_after_crossing_or_turning</title>
<ellipse fill="none" stroke="#000000" cx="265.083" cy="-105" rx="155.9723" ry="18"/>
<text text-anchor="middle" x="265.083" y="-101.3" font-family="Times,serif" font-size="14.00" fill="#000000">Accelerating_after_crossing_or_turning</text>
</g>
<!-- Car_stopping_at_red_traffic_light_or_traffic_jam&#45;&gt;Accelerating_after_crossing_or_turning -->
<g id="edge3" class="edge">
<title>Car_stopping_at_red_traffic_light_or_traffic_jam&#45;&gt;Accelerating_after_crossing_or_turning</title>
<path fill="none" stroke="#000000" d="M206.4159,-173.9735C217.0325,-161.4919 231.3238,-144.6899 243.143,-130.7944"/>
<polygon fill="#000000" stroke="#000000" points="245.9568,-132.8883 249.7698,-123.0034 240.6247,-128.3529 245.9568,-132.8883"/>
<text text-anchor="middle" x="243.583" y="-144.8" font-family="Times,serif" font-size="14.00" fill="#000000">e_1</text>
</g>
<!-- Car_stopping_at_red_traffic_light_or_traffic_jam&#45;&gt;Approaching_a_crossroad_or_an_obstacle -->
<g id="edge4" class="edge">
<title>Car_stopping_at_red_traffic_light_or_traffic_jam&#45;&gt;Approaching_a_crossroad_or_an_obstacle</title>
<path fill="none" stroke="#000000" d="M230.8197,-209.7287C261.5824,-223.4535 304.3427,-242.5312 337.2016,-257.1914"/>
<polygon fill="#000000" stroke="#000000" points="336.0635,-260.5161 346.6219,-261.3943 338.9156,-254.1235 336.0635,-260.5161"/>
<text text-anchor="middle" x="315.083" y="-231.8" font-family="Times,serif" font-size="14.00" fill="#000000">e_31</text>
</g>
<!-- Car_turning -->
<g id="node5" class="node">
<title>Car_turning</title>
<ellipse fill="none" stroke="#000000" cx="405.083" cy="-18" rx="54.6905" ry="18"/>
<text text-anchor="middle" x="405.083" y="-14.3" font-family="Times,serif" font-size="14.00" fill="#000000">Car_turning</text>
</g>
<!-- Accelerating_after_crossing_or_turning&#45;&gt;Car_turning -->
<g id="edge5" class="edge">
<title>Accelerating_after_crossing_or_turning&#45;&gt;Car_turning</title>
<path fill="none" stroke="#000000" d="M287.4133,-87.0098C300.6067,-76.763 317.8567,-64.013 334.083,-54 343.6281,-48.1099 354.2567,-42.3364 364.3226,-37.1974"/>
<polygon fill="#000000" stroke="#000000" points="365.987,-40.2783 373.3614,-32.6712 362.8527,-34.0192 365.987,-40.2783"/>
<text text-anchor="middle" x="348.083" y="-57.8" font-family="Times,serif" font-size="14.00" fill="#000000">e_18</text>
</g>
<!-- Approaching_a_crossroad_or_an_obstacle&#45;&gt;Car_stopping_at_red_traffic_light_or_traffic_jam -->
<g id="edge6" class="edge">
<title>Approaching_a_crossroad_or_an_obstacle&#45;&gt;Car_stopping_at_red_traffic_light_or_traffic_jam</title>
<path fill="none" stroke="#000000" d="M297.7059,-263.7518C279.645,-258.6475 261.2381,-251.8972 245.083,-243 233.2581,-236.4876 222.0741,-226.7728 212.9843,-217.5639"/>
<polygon fill="#000000" stroke="#000000" points="215.2823,-214.8994 205.8733,-210.0288 210.1913,-219.7038 215.2823,-214.8994"/>
<text text-anchor="middle" x="259.083" y="-231.8" font-family="Times,serif" font-size="14.00" fill="#000000">e_32</text>
</g>
<!-- Approaching_a_crossroad_or_an_obstacle&#45;&gt;Approaching_a_crossroad_or_an_obstacle -->
<g id="edge8" class="edge">
<title>Approaching_a_crossroad_or_an_obstacle&#45;&gt;Approaching_a_crossroad_or_an_obstacle</title>
<path fill="none" stroke="#000000" d="M543.8755,-284.5263C559.7213,-283.4261 569.8183,-281.584 569.8183,-279 569.8183,-277.0216 563.8996,-275.4782 554.0137,-274.3696"/>
<polygon fill="#000000" stroke="#000000" points="554.1448,-270.8676 543.8755,-273.4737 553.5286,-277.8404 554.1448,-270.8676"/>
<text text-anchor="middle" x="580.3183" y="-275.3" font-family="Times,serif" font-size="14.00" fill="#000000">e_3</text>
</g>
<!-- Approaching_a_crossroad_or_an_obstacle&#45;&gt;Car_turning -->
<g id="edge7" class="edge">
<title>Approaching_a_crossroad_or_an_obstacle&#45;&gt;Car_turning</title>
<path fill="none" stroke="#000000" d="M401.7886,-260.8162C412.0561,-247.6713 424.5527,-228.9583 430.083,-210 445.3918,-157.5206 439.5365,-140.8431 430.083,-87 427.5969,-72.8399 422.4455,-57.7575 417.4614,-45.3167"/>
<polygon fill="#000000" stroke="#000000" points="420.6415,-43.8492 413.5542,-35.9739 414.1834,-46.55 420.6415,-43.8492"/>
<text text-anchor="middle" x="453.083" y="-144.8" font-family="Times,serif" font-size="14.00" fill="#000000">e_15</text>
</g>
<!-- Car_turning&#45;&gt;Accelerating_after_crossing_or_turning -->
<g id="edge9" class="edge">
<title>Car_turning&#45;&gt;Accelerating_after_crossing_or_turning</title>
<path fill="none" stroke="#000000" d="M393.7431,-35.6265C385.9642,-46.5187 374.7778,-60.0736 362.083,-69 353.6203,-74.9506 344.0559,-80.0458 334.3137,-84.3693"/>
<polygon fill="#000000" stroke="#000000" points="332.8275,-81.197 324.949,-88.2809 335.5254,-87.6562 332.8275,-81.197"/>
<text text-anchor="middle" x="392.083" y="-57.8" font-family="Times,serif" font-size="14.00" fill="#000000">e_21</text>
</g>
<!-- Car_turning&#45;&gt;Approaching_a_crossroad_or_an_obstacle -->
<g id="edge10" class="edge">
<title>Car_turning&#45;&gt;Approaching_a_crossroad_or_an_obstacle</title>
<path fill="none" stroke="#000000" d="M422.0824,-35.3229C444.7517,-60.5569 480.9515,-109.4978 471.083,-156 468.4631,-168.3456 437.7006,-235.861 432.083,-243 428.873,-247.0794 425.1076,-250.9668 421.1372,-254.5758"/>
<polygon fill="#000000" stroke="#000000" points="418.7295,-252.0277 413.3415,-261.1502 423.2424,-257.3789 418.7295,-252.0277"/>
<text text-anchor="middle" x="486.083" y="-144.8" font-family="Times,serif" font-size="14.00" fill="#000000">e_12</text>
</g>
</g>
</svg>
