<?xml version="1.0" encoding="UTF-8" standalone="no"?>
<!DOCTYPE svg PUBLIC "-//W3C//DTD SVG 1.1//EN"
 "http://www.w3.org/Graphics/SVG/1.1/DTD/svg11.dtd">
<!-- Generated by graphviz version 2.40.1 (20161225.0304)
 -->
<!-- Title: %3 Pages: 1 -->
<svg width="872pt" height="552pt"
 viewBox="0.00 0.00 871.59 552.00" xmlns="http://www.w3.org/2000/svg" xmlns:xlink="http://www.w3.org/1999/xlink">
<g id="graph0" class="graph" transform="scale(1 1) rotate(0) translate(4 548)">
<title>%3</title>
<polygon fill="#ffffff" stroke="transparent" points="-4,4 -4,-548 867.5871,-548 867.5871,4 -4,4"/>
<!-- fake -->
<g id="node1" class="node">
<title>fake</title>
</g>
<!-- Approaching_a_crossroad_or_an_obstacle -->
<g id="node2" class="node">
<title>Approaching_a_crossroad_or_an_obstacle</title>
<ellipse fill="none" stroke="#000000" cx="625.5871" cy="-453" rx="165.9709" ry="18"/>
<text text-anchor="middle" x="625.5871" y="-449.3" font-family="Times,serif" font-size="14.00" fill="#000000">Approaching_a_crossroad_or_an_obstacle</text>
</g>
<!-- fake&#45;&gt;Approaching_a_crossroad_or_an_obstacle -->
<g id="edge1" class="edge">
<title>fake&#45;&gt;Approaching_a_crossroad_or_an_obstacle</title>
<path fill="none" stroke="#000000" stroke-width="2" d="M625.5871,-507.9551C625.5871,-499.8828 625.5871,-490.1764 625.5871,-481.1817"/>
<polygon fill="#000000" stroke="#000000" stroke-width="2" points="629.0872,-481.0903 625.5871,-471.0904 622.0872,-481.0904 629.0872,-481.0903"/>
</g>
<!-- Approaching_a_crossroad_or_an_obstacle&#45;&gt;Approaching_a_crossroad_or_an_obstacle -->
<g id="edge8" class="edge">
<title>Approaching_a_crossroad_or_an_obstacle&#45;&gt;Approaching_a_crossroad_or_an_obstacle</title>
<path fill="none" stroke="#000000" d="M783.3796,-458.5263C799.2253,-457.4261 809.3224,-455.584 809.3224,-453 809.3224,-451.0216 803.4036,-449.4782 793.5178,-448.3696"/>
<polygon fill="#000000" stroke="#000000" points="793.6489,-444.8676 783.3796,-447.4737 793.0327,-451.8404 793.6489,-444.8676"/>
<text text-anchor="middle" x="823.3224" y="-449.3" font-family="Times,serif" font-size="14.00" fill="#000000">e_66</text>
</g>
<!-- Car_accelerating_after_stopping_at_red_traffic_light_or_traffic_jam -->
<g id="node3" class="node">
<title>Car_accelerating_after_stopping_at_red_traffic_light_or_traffic_jam</title>
<ellipse fill="none" stroke="#000000" cx="366.5871" cy="-366" rx="260.7538" ry="18"/>
<text text-anchor="middle" x="366.5871" y="-362.3" font-family="Times,serif" font-size="14.00" fill="#000000">Car_accelerating_after_stopping_at_red_traffic_light_or_traffic_jam</text>
</g>
<!-- Approaching_a_crossroad_or_an_obstacle&#45;&gt;Car_accelerating_after_stopping_at_red_traffic_light_or_traffic_jam -->
<g id="edge10" class="edge">
<title>Approaching_a_crossroad_or_an_obstacle&#45;&gt;Car_accelerating_after_stopping_at_red_traffic_light_or_traffic_jam</title>
<path fill="none" stroke="#000000" d="M574.417,-435.8116C532.6641,-421.7865 473.51,-401.9162 428.9819,-386.9589"/>
<polygon fill="#000000" stroke="#000000" points="430.023,-383.6165 419.429,-383.75 427.794,-390.2521 430.023,-383.6165"/>
<text text-anchor="middle" x="522.0871" y="-405.8" font-family="Times,serif" font-size="14.00" fill="#000000">e_9</text>
</g>
<!-- Braking_before_crossing_or_turning -->
<g id="node5" class="node">
<title>Braking_before_crossing_or_turning</title>
<ellipse fill="none" stroke="#000000" cx="145.5871" cy="-192" rx="145.6742" ry="18"/>
<text text-anchor="middle" x="145.5871" y="-188.3" font-family="Times,serif" font-size="14.00" fill="#000000">Braking_before_crossing_or_turning</text>
</g>
<!-- Approaching_a_crossroad_or_an_obstacle&#45;&gt;Braking_before_crossing_or_turning -->
<g id="edge11" class="edge">
<title>Approaching_a_crossroad_or_an_obstacle&#45;&gt;Braking_before_crossing_or_turning</title>
<path fill="none" stroke="#000000" d="M482.1339,-443.9252C334.2655,-433.0743 121.7946,-412.709 96.5871,-384 55.0342,-336.6752 97.9684,-258.8504 125.8042,-218.348"/>
<polygon fill="#000000" stroke="#000000" points="128.7449,-220.2512 131.6484,-210.062 123.0245,-216.2166 128.7449,-220.2512"/>
<text text-anchor="middle" x="95.5871" y="-318.8" font-family="Times,serif" font-size="14.00" fill="#000000">e_12</text>
</g>
<!-- Car_stopping_at_red_traffic_light_or_traffic_jam -->
<g id="node6" class="node">
<title>Car_stopping_at_red_traffic_light_or_traffic_jam</title>
<ellipse fill="none" stroke="#000000" cx="310.5871" cy="-18" rx="191.1661" ry="18"/>
<text text-anchor="middle" x="310.5871" y="-14.3" font-family="Times,serif" font-size="14.00" fill="#000000">Car_stopping_at_red_traffic_light_or_traffic_jam</text>
</g>
<!-- Approaching_a_crossroad_or_an_obstacle&#45;&gt;Car_stopping_at_red_traffic_light_or_traffic_jam -->
<g id="edge7" class="edge">
<title>Approaching_a_crossroad_or_an_obstacle&#45;&gt;Car_stopping_at_red_traffic_light_or_traffic_jam</title>
<path fill="none" stroke="#000000" d="M712.0664,-437.5489C749.3588,-425.4144 784.5871,-403.9168 784.5871,-366 784.5871,-366 784.5871,-366 784.5871,-105 784.5871,-71.5343 599.4399,-45.917 460.5738,-31.4097"/>
<polygon fill="#000000" stroke="#000000" points="460.5459,-27.8883 450.239,-30.3415 459.8261,-34.8512 460.5459,-27.8883"/>
<text text-anchor="middle" x="798.5871" y="-231.8" font-family="Times,serif" font-size="14.00" fill="#000000">e_13</text>
</g>
<!-- Accelerating_after_crossing_or_turning -->
<g id="node7" class="node">
<title>Accelerating_after_crossing_or_turning</title>
<ellipse fill="none" stroke="#000000" cx="561.5871" cy="-192" rx="155.9723" ry="18"/>
<text text-anchor="middle" x="561.5871" y="-188.3" font-family="Times,serif" font-size="14.00" fill="#000000">Accelerating_after_crossing_or_turning</text>
</g>
<!-- Approaching_a_crossroad_or_an_obstacle&#45;&gt;Accelerating_after_crossing_or_turning -->
<g id="edge9" class="edge">
<title>Approaching_a_crossroad_or_an_obstacle&#45;&gt;Accelerating_after_crossing_or_turning</title>
<path fill="none" stroke="#000000" d="M631.0184,-434.9511C636.5538,-413.8604 643.4293,-378.0228 636.5871,-348 625.5736,-299.6741 597.6189,-248.8632 579.1247,-218.8298"/>
<polygon fill="#000000" stroke="#000000" points="581.9939,-216.8171 573.7181,-210.2018 576.0623,-220.5341 581.9939,-216.8171"/>
<text text-anchor="middle" x="644.5871" y="-318.8" font-family="Times,serif" font-size="14.00" fill="#000000">e_39</text>
</g>
<!-- Car_accelerating_after_stopping_at_red_traffic_light_or_traffic_jam&#45;&gt;Approaching_a_crossroad_or_an_obstacle -->
<g id="edge15" class="edge">
<title>Car_accelerating_after_stopping_at_red_traffic_light_or_traffic_jam&#45;&gt;Approaching_a_crossroad_or_an_obstacle</title>
<path fill="none" stroke="#000000" d="M390.1561,-384.0704C405.69,-395.1397 426.9139,-408.7251 447.5871,-417 468.2401,-425.2668 491.0303,-431.7113 513.2107,-436.7102"/>
<polygon fill="#000000" stroke="#000000" points="512.494,-440.1361 523.0087,-438.8357 513.978,-433.2952 512.494,-440.1361"/>
<text text-anchor="middle" x="461.5871" y="-405.8" font-family="Times,serif" font-size="14.00" fill="#000000">e_10</text>
</g>
<!-- Car_turning -->
<g id="node4" class="node">
<title>Car_turning</title>
<ellipse fill="none" stroke="#000000" cx="222.5871" cy="-279" rx="54.6905" ry="18"/>
<text text-anchor="middle" x="222.5871" y="-275.3" font-family="Times,serif" font-size="14.00" fill="#000000">Car_turning</text>
</g>
<!-- Car_accelerating_after_stopping_at_red_traffic_light_or_traffic_jam&#45;&gt;Car_turning -->
<g id="edge18" class="edge">
<title>Car_accelerating_after_stopping_at_red_traffic_light_or_traffic_jam&#45;&gt;Car_turning</title>
<path fill="none" stroke="#000000" d="M307.8233,-348.3941C295.3482,-343.4005 282.6242,-337.2915 271.5871,-330 260.9692,-322.9855 250.9174,-313.2917 242.7137,-304.2376"/>
<polygon fill="#000000" stroke="#000000" points="245.2146,-301.7797 236.0122,-296.5292 239.9318,-306.3723 245.2146,-301.7797"/>
<text text-anchor="middle" x="285.5871" y="-318.8" font-family="Times,serif" font-size="14.00" fill="#000000">e_12</text>
</g>
<!-- Car_accelerating_after_stopping_at_red_traffic_light_or_traffic_jam&#45;&gt;Braking_before_crossing_or_turning -->
<g id="edge17" class="edge">
<title>Car_accelerating_after_stopping_at_red_traffic_light_or_traffic_jam&#45;&gt;Braking_before_crossing_or_turning</title>
<path fill="none" stroke="#000000" d="M356.0147,-347.8498C342.2357,-325.3551 316.3552,-286.8384 286.5871,-261 262.7453,-240.3055 231.6091,-224.2112 204.662,-212.7913"/>
<polygon fill="#000000" stroke="#000000" points="205.9035,-209.5175 195.324,-208.947 203.2386,-215.9904 205.9035,-209.5175"/>
<text text-anchor="middle" x="331.0871" y="-275.3" font-family="Times,serif" font-size="14.00" fill="#000000">e_2</text>
</g>
<!-- Car_accelerating_after_stopping_at_red_traffic_light_or_traffic_jam&#45;&gt;Accelerating_after_crossing_or_turning -->
<g id="edge16" class="edge">
<title>Car_accelerating_after_stopping_at_red_traffic_light_or_traffic_jam&#45;&gt;Accelerating_after_crossing_or_turning</title>
<path fill="none" stroke="#000000" d="M428.4102,-348.3826C457.5546,-337.4979 491.0157,-320.9368 514.5871,-297 535.6104,-275.6508 548.1344,-243.2639 554.9007,-220.1081"/>
<polygon fill="#000000" stroke="#000000" points="558.3508,-220.7606 557.6142,-210.1914 551.599,-218.913 558.3508,-220.7606"/>
<text text-anchor="middle" x="552.5871" y="-275.3" font-family="Times,serif" font-size="14.00" fill="#000000">e_24</text>
</g>
<!-- Car_turning&#45;&gt;Car_accelerating_after_stopping_at_red_traffic_light_or_traffic_jam -->
<g id="edge21" class="edge">
<title>Car_turning&#45;&gt;Car_accelerating_after_stopping_at_red_traffic_light_or_traffic_jam</title>
<path fill="none" stroke="#000000" d="M216.9444,-297.3119C214.8634,-307.9216 214.4947,-320.9314 221.5871,-330 226.6664,-336.4946 238.1652,-341.9836 252.582,-346.566"/>
<polygon fill="#000000" stroke="#000000" points="251.8587,-350.001 262.4391,-349.4478 253.823,-343.2823 251.8587,-350.001"/>
<text text-anchor="middle" x="235.5871" y="-318.8" font-family="Times,serif" font-size="14.00" fill="#000000">e_13</text>
</g>
<!-- Car_turning&#45;&gt;Braking_before_crossing_or_turning -->
<g id="edge22" class="edge">
<title>Car_turning&#45;&gt;Braking_before_crossing_or_turning</title>
<path fill="none" stroke="#000000" d="M213.6942,-260.9358C208.1466,-250.6643 200.3966,-237.9143 191.5871,-228 187.9665,-223.9254 183.8385,-219.9747 179.5756,-216.2757"/>
<polygon fill="#000000" stroke="#000000" points="181.7856,-213.5616 171.8375,-209.9166 177.3413,-218.9698 181.7856,-213.5616"/>
<text text-anchor="middle" x="213.0871" y="-231.8" font-family="Times,serif" font-size="14.00" fill="#000000">e_6</text>
</g>
<!-- Car_turning&#45;&gt;Accelerating_after_crossing_or_turning -->
<g id="edge20" class="edge">
<title>Car_turning&#45;&gt;Accelerating_after_crossing_or_turning</title>
<path fill="none" stroke="#000000" d="M265.6467,-267.7468C274.2385,-265.5071 283.1985,-263.1755 291.5871,-261 348.4549,-246.2519 362.6688,-242.5521 419.5871,-228 441.3821,-222.4278 465.0684,-216.4084 486.7371,-210.916"/>
<polygon fill="#000000" stroke="#000000" points="487.7029,-214.282 496.5369,-208.4331 485.9836,-207.4964 487.7029,-214.282"/>
<text text-anchor="middle" x="430.0871" y="-231.8" font-family="Times,serif" font-size="14.00" fill="#000000">e_1</text>
</g>
<!-- Braking_before_crossing_or_turning&#45;&gt;Approaching_a_crossroad_or_an_obstacle -->
<g id="edge24" class="edge">
<title>Braking_before_crossing_or_turning&#45;&gt;Approaching_a_crossroad_or_an_obstacle</title>
<path fill="none" stroke="#000000" d="M123.4195,-210.0174C98.7353,-231.7876 60.5953,-271.0135 47.5871,-315 38.1534,-346.8994 53.1831,-360.3606 76.5871,-384 97.9992,-405.6274 107.4081,-408.3509 136.5871,-417 194.38,-434.1307 337.8848,-443.3252 454.5806,-448.1215"/>
<polygon fill="#000000" stroke="#000000" points="454.5802,-451.6242 464.7131,-448.5297 454.8621,-444.6299 454.5802,-451.6242"/>
<text text-anchor="middle" x="61.5871" y="-318.8" font-family="Times,serif" font-size="14.00" fill="#000000">e_32</text>
</g>
<!-- Braking_before_crossing_or_turning&#45;&gt;Car_accelerating_after_stopping_at_red_traffic_light_or_traffic_jam -->
<g id="edge25" class="edge">
<title>Braking_before_crossing_or_turning&#45;&gt;Car_accelerating_after_stopping_at_red_traffic_light_or_traffic_jam</title>
<path fill="none" stroke="#000000" d="M138.018,-209.9899C129.9215,-232.3193 120.4033,-270.6655 137.5871,-297 151.6563,-318.5613 205.8296,-335.4246 257.9525,-347.0819"/>
<polygon fill="#000000" stroke="#000000" points="257.4774,-350.5605 267.9935,-349.2708 258.9684,-343.7211 257.4774,-350.5605"/>
<text text-anchor="middle" x="148.0871" y="-275.3" font-family="Times,serif" font-size="14.00" fill="#000000">e_3</text>
</g>
<!-- Braking_before_crossing_or_turning&#45;&gt;Car_turning -->
<g id="edge27" class="edge">
<title>Braking_before_crossing_or_turning&#45;&gt;Car_turning</title>
<path fill="none" stroke="#000000" d="M150.2002,-210.4399C153.4879,-220.8366 158.7379,-233.5866 166.5871,-243 171.3705,-248.7366 177.3075,-253.8711 183.5109,-258.3419"/>
<polygon fill="#000000" stroke="#000000" points="181.7867,-261.3985 192.0518,-264.0212 185.6627,-255.5695 181.7867,-261.3985"/>
<text text-anchor="middle" x="177.0871" y="-231.8" font-family="Times,serif" font-size="14.00" fill="#000000">e_8</text>
</g>
<!-- Braking_before_crossing_or_turning&#45;&gt;Braking_before_crossing_or_turning -->
<g id="edge28" class="edge">
<title>Braking_before_crossing_or_turning&#45;&gt;Braking_before_crossing_or_turning</title>
<path fill="none" stroke="#000000" d="M280.0433,-198.9232C297.5717,-197.7325 309.1742,-195.4248 309.1742,-192 309.1742,-189.2976 301.9502,-187.2907 290.2912,-185.9794"/>
<polygon fill="#000000" stroke="#000000" points="290.3119,-182.4677 280.0433,-185.0768 289.6977,-189.4407 290.3119,-182.4677"/>
<text text-anchor="middle" x="319.6742" y="-188.3" font-family="Times,serif" font-size="14.00" fill="#000000">e_4</text>
</g>
<!-- Braking_before_crossing_or_turning&#45;&gt;Car_stopping_at_red_traffic_light_or_traffic_jam -->
<g id="edge23" class="edge">
<title>Braking_before_crossing_or_turning&#45;&gt;Car_stopping_at_red_traffic_light_or_traffic_jam</title>
<path fill="none" stroke="#000000" d="M134.668,-173.9776C122.6846,-151.6148 107.4068,-113.2341 125.5871,-87 138.5479,-68.2976 187.8189,-50.4364 232.2544,-37.5737"/>
<polygon fill="#000000" stroke="#000000" points="233.2768,-40.9218 241.9414,-34.8247 231.3658,-34.1877 233.2768,-40.9218"/>
<text text-anchor="middle" x="139.5871" y="-101.3" font-family="Times,serif" font-size="14.00" fill="#000000">e_16</text>
</g>
<!-- Car_braking -->
<g id="node8" class="node">
<title>Car_braking</title>
<ellipse fill="none" stroke="#000000" cx="218.5871" cy="-105" rx="55.7903" ry="18"/>
<text text-anchor="middle" x="218.5871" y="-101.3" font-family="Times,serif" font-size="14.00" fill="#000000">Car_braking</text>
</g>
<!-- Braking_before_crossing_or_turning&#45;&gt;Car_braking -->
<g id="edge26" class="edge">
<title>Braking_before_crossing_or_turning&#45;&gt;Car_braking</title>
<path fill="none" stroke="#000000" d="M160.7127,-173.9735C171.3255,-161.3254 185.6607,-144.2411 197.4086,-130.2401"/>
<polygon fill="#000000" stroke="#000000" points="200.2323,-132.32 203.9789,-122.4097 194.8699,-127.8205 200.2323,-132.32"/>
<text text-anchor="middle" x="197.0871" y="-144.8" font-family="Times,serif" font-size="14.00" fill="#000000">e_1</text>
</g>
<!-- Car_stopping_at_red_traffic_light_or_traffic_jam&#45;&gt;Approaching_a_crossroad_or_an_obstacle -->
<g id="edge3" class="edge">
<title>Car_stopping_at_red_traffic_light_or_traffic_jam&#45;&gt;Approaching_a_crossroad_or_an_obstacle</title>
<path fill="none" stroke="#000000" d="M491.0914,-23.9803C618.7012,-29.451 771.6867,-39.0094 798.5871,-54 823.0488,-67.6316 835.5871,-76.9965 835.5871,-105 835.5871,-366 835.5871,-366 835.5871,-366 835.5871,-394.0035 822.1001,-401.7903 798.5871,-417 787.059,-424.4571 762.4434,-431.1005 735.3014,-436.5876"/>
<polygon fill="#000000" stroke="#000000" points="734.352,-433.2067 725.2069,-438.5562 735.692,-440.0773 734.352,-433.2067"/>
<text text-anchor="middle" x="849.5871" y="-231.8" font-family="Times,serif" font-size="14.00" fill="#000000">e_10</text>
</g>
<!-- Car_stopping_at_red_traffic_light_or_traffic_jam&#45;&gt;Car_accelerating_after_stopping_at_red_traffic_light_or_traffic_jam -->
<g id="edge4" class="edge">
<title>Car_stopping_at_red_traffic_light_or_traffic_jam&#45;&gt;Car_accelerating_after_stopping_at_red_traffic_light_or_traffic_jam</title>
<path fill="none" stroke="#000000" d="M331.1214,-36.2127C347.1038,-52.4815 366.5871,-77.8764 366.5871,-105 366.5871,-279 366.5871,-279 366.5871,-279 366.5871,-298.4525 366.5871,-320.3516 366.5871,-337.3123"/>
<polygon fill="#000000" stroke="#000000" points="363.0872,-337.6694 366.5871,-347.6694 370.0872,-337.6695 363.0872,-337.6694"/>
<text text-anchor="middle" x="377.0871" y="-188.3" font-family="Times,serif" font-size="14.00" fill="#000000">e_1</text>
</g>
<!-- Car_stopping_at_red_traffic_light_or_traffic_jam&#45;&gt;Braking_before_crossing_or_turning -->
<g id="edge6" class="edge">
<title>Car_stopping_at_red_traffic_light_or_traffic_jam&#45;&gt;Braking_before_crossing_or_turning</title>
<path fill="none" stroke="#000000" d="M310.3443,-36.3612C309.1248,-59.0736 303.9291,-97.8149 283.5871,-123 265.678,-145.173 238.8152,-160.8343 213.536,-171.5664"/>
<polygon fill="#000000" stroke="#000000" points="211.9071,-168.4496 203.947,-175.4416 214.5299,-174.9397 211.9071,-168.4496"/>
<text text-anchor="middle" x="315.5871" y="-101.3" font-family="Times,serif" font-size="14.00" fill="#000000">e_24</text>
</g>
<!-- Car_stopping_at_red_traffic_light_or_traffic_jam&#45;&gt;Car_stopping_at_red_traffic_light_or_traffic_jam -->
<g id="edge2" class="edge">
<title>Car_stopping_at_red_traffic_light_or_traffic_jam&#45;&gt;Car_stopping_at_red_traffic_light_or_traffic_jam</title>
<path fill="none" stroke="#000000" d="M488.6619,-24.5502C507.5462,-23.2801 519.6701,-21.0967 519.6701,-18 519.6701,-15.5081 511.8197,-13.6076 498.9133,-12.2985"/>
<polygon fill="#000000" stroke="#000000" points="498.9166,-8.7869 488.6619,-11.4498 498.339,-15.763 498.9166,-8.7869"/>
<text text-anchor="middle" x="533.6701" y="-14.3" font-family="Times,serif" font-size="14.00" fill="#000000">e_13</text>
</g>
<!-- Car_stopping_at_red_traffic_light_or_traffic_jam&#45;&gt;Car_braking -->
<g id="edge5" class="edge">
<title>Car_stopping_at_red_traffic_light_or_traffic_jam&#45;&gt;Car_braking</title>
<path fill="none" stroke="#000000" d="M245.9577,-35.1407C237.3119,-39.9594 229.4292,-46.1221 223.5871,-54 218.7969,-60.4594 216.7661,-68.7155 216.1433,-76.6943"/>
<polygon fill="#000000" stroke="#000000" points="212.6417,-76.8078 216.0218,-86.849 219.6412,-76.8916 212.6417,-76.8078"/>
<text text-anchor="middle" x="234.0871" y="-57.8" font-family="Times,serif" font-size="14.00" fill="#000000">e_9</text>
</g>
<!-- Accelerating_after_crossing_or_turning&#45;&gt;Approaching_a_crossroad_or_an_obstacle -->
<g id="edge12" class="edge">
<title>Accelerating_after_crossing_or_turning&#45;&gt;Approaching_a_crossroad_or_an_obstacle</title>
<path fill="none" stroke="#000000" d="M584.2934,-209.8989C609.6017,-231.5577 648.7859,-270.6792 662.5871,-315 676.1742,-358.6335 666.0347,-374.3624 649.5871,-417 648.3976,-420.0836 646.908,-423.1707 645.2566,-426.169"/>
<polygon fill="#000000" stroke="#000000" points="642.2039,-424.4517 639.9553,-434.8052 648.1697,-428.1137 642.2039,-424.4517"/>
<text text-anchor="middle" x="679.5871" y="-318.8" font-family="Times,serif" font-size="14.00" fill="#000000">e_94</text>
</g>
<!-- Accelerating_after_crossing_or_turning&#45;&gt;Car_accelerating_after_stopping_at_red_traffic_light_or_traffic_jam -->
<g id="edge14" class="edge">
<title>Accelerating_after_crossing_or_turning&#45;&gt;Car_accelerating_after_stopping_at_red_traffic_light_or_traffic_jam</title>
<path fill="none" stroke="#000000" d="M541.5626,-209.868C506.5181,-241.1385 434.0181,-305.8308 394.2232,-341.3401"/>
<polygon fill="#000000" stroke="#000000" points="391.8522,-338.7649 386.721,-348.0343 396.5128,-343.9879 391.8522,-338.7649"/>
<text text-anchor="middle" x="496.5871" y="-275.3" font-family="Times,serif" font-size="14.00" fill="#000000">e_17</text>
</g>
<!-- Accelerating_after_crossing_or_turning&#45;&gt;Accelerating_after_crossing_or_turning -->
<g id="edge13" class="edge">
<title>Accelerating_after_crossing_or_turning&#45;&gt;Accelerating_after_crossing_or_turning</title>
<path fill="none" stroke="#000000" d="M705.9192,-198.8357C723.8173,-197.6213 735.5732,-195.3428 735.5732,-192 735.5732,-189.3362 728.1081,-187.3482 716.0185,-186.036"/>
<polygon fill="#000000" stroke="#000000" points="716.1832,-182.5373 705.9192,-185.1643 715.5812,-189.5114 716.1832,-182.5373"/>
<text text-anchor="middle" x="746.0732" y="-188.3" font-family="Times,serif" font-size="14.00" fill="#000000">e_2</text>
</g>
<!-- Car_braking&#45;&gt;Car_stopping_at_red_traffic_light_or_traffic_jam -->
<g id="edge19" class="edge">
<title>Car_braking&#45;&gt;Car_stopping_at_red_traffic_light_or_traffic_jam</title>
<path fill="none" stroke="#000000" d="M234.8933,-87.631C244.4954,-77.5913 256.9954,-64.8413 268.5871,-54 272.6202,-50.228 276.9604,-46.3343 281.2663,-42.5638"/>
<polygon fill="#000000" stroke="#000000" points="283.6275,-45.1492 288.9062,-35.9629 279.051,-39.8523 283.6275,-45.1492"/>
<text text-anchor="middle" x="282.5871" y="-57.8" font-family="Times,serif" font-size="14.00" fill="#000000">e_10</text>
</g>
</g>
</svg>
