<?xml version="1.0" encoding="UTF-8" standalone="no"?>
<!DOCTYPE svg PUBLIC "-//W3C//DTD SVG 1.1//EN"
 "http://www.w3.org/Graphics/SVG/1.1/DTD/svg11.dtd">
<!-- Generated by graphviz version 2.40.1 (20161225.0304)
 -->
<!-- Title: %3 Pages: 1 -->
<svg width="1002pt" height="639pt"
 viewBox="0.00 0.00 1002.00 639.00" xmlns="http://www.w3.org/2000/svg" xmlns:xlink="http://www.w3.org/1999/xlink">
<g id="graph0" class="graph" transform="scale(1 1) rotate(0) translate(4 635)">
<title>%3</title>
<polygon fill="#ffffff" stroke="transparent" points="-4,4 -4,-635 998,-635 998,4 -4,4"/>
<!-- fake -->
<g id="node1" class="node">
<title>fake</title>
</g>
<!-- Car_in_a_roundabout -->
<g id="node3" class="node">
<title>Car_in_a_roundabout</title>
<ellipse fill="none" stroke="#000000" cx="392" cy="-540" rx="90.1842" ry="18"/>
<text text-anchor="middle" x="392" y="-536.3" font-family="Times,serif" font-size="14.00" fill="#000000">Car_in_a_roundabout</text>
</g>
<!-- fake&#45;&gt;Car_in_a_roundabout -->
<g id="edge1" class="edge">
<title>fake&#45;&gt;Car_in_a_roundabout</title>
<path fill="none" stroke="#000000" stroke-width="2" d="M392,-594.9551C392,-586.8828 392,-577.1764 392,-568.1817"/>
<polygon fill="#000000" stroke="#000000" stroke-width="2" points="395.5001,-568.0903 392,-558.0904 388.5001,-568.0904 395.5001,-568.0903"/>
</g>
<!-- Car_accelerating -->
<g id="node2" class="node">
<title>Car_accelerating</title>
<ellipse fill="none" stroke="#000000" cx="436" cy="-453" rx="72.2875" ry="18"/>
<text text-anchor="middle" x="436" y="-449.3" font-family="Times,serif" font-size="14.00" fill="#000000">Car_accelerating</text>
</g>
<!-- Car_accelerating&#45;&gt;Car_in_a_roundabout -->
<g id="edge24" class="edge">
<title>Car_accelerating&#45;&gt;Car_in_a_roundabout</title>
<path fill="none" stroke="#000000" d="M428.8708,-471.2264C424.8328,-481.0852 419.4993,-493.3825 414,-504 412.4504,-506.9918 410.7473,-510.0709 408.996,-513.1091"/>
<polygon fill="#000000" stroke="#000000" points="405.8246,-511.5935 403.7025,-521.9736 411.8345,-515.1824 405.8246,-511.5935"/>
<text text-anchor="middle" x="430.5" y="-492.8" font-family="Times,serif" font-size="14.00" fill="#000000">e_1</text>
</g>
<!-- Car_driving_at_a_constant_speed -->
<g id="node4" class="node">
<title>Car_driving_at_a_constant_speed</title>
<ellipse fill="none" stroke="#000000" cx="656" cy="-366" rx="134.5761" ry="18"/>
<text text-anchor="middle" x="656" y="-362.3" font-family="Times,serif" font-size="14.00" fill="#000000">Car_driving_at_a_constant_speed</text>
</g>
<!-- Car_accelerating&#45;&gt;Car_driving_at_a_constant_speed -->
<g id="edge25" class="edge">
<title>Car_accelerating&#45;&gt;Car_driving_at_a_constant_speed</title>
<path fill="none" stroke="#000000" d="M488.9763,-440.6238C511.828,-434.5833 538.6214,-426.5472 562,-417 567.6904,-414.6762 592.6455,-401.1103 615.4125,-388.5546"/>
<polygon fill="#000000" stroke="#000000" points="617.2531,-391.5364 624.3132,-383.6366 613.8677,-385.4095 617.2531,-391.5364"/>
<text text-anchor="middle" x="603" y="-405.8" font-family="Times,serif" font-size="14.00" fill="#000000">e_19</text>
</g>
<!-- Approaching_a_crossroad_or_an_obstacle -->
<g id="node5" class="node">
<title>Approaching_a_crossroad_or_an_obstacle</title>
<ellipse fill="none" stroke="#000000" cx="687" cy="-279" rx="165.9709" ry="18"/>
<text text-anchor="middle" x="687" y="-275.3" font-family="Times,serif" font-size="14.00" fill="#000000">Approaching_a_crossroad_or_an_obstacle</text>
</g>
<!-- Car_accelerating&#45;&gt;Approaching_a_crossroad_or_an_obstacle -->
<g id="edge23" class="edge">
<title>Car_accelerating&#45;&gt;Approaching_a_crossroad_or_an_obstacle</title>
<path fill="none" stroke="#000000" d="M443.5806,-434.8236C455.015,-408.1551 476.84,-360.2546 491,-348 519.2998,-323.5083 556.852,-307.5354 591.5097,-297.199"/>
<polygon fill="#000000" stroke="#000000" points="592.5445,-300.5435 601.1981,-294.4307 590.6213,-293.8129 592.5445,-300.5435"/>
<text text-anchor="middle" x="501.5" y="-362.3" font-family="Times,serif" font-size="14.00" fill="#000000">e_8</text>
</g>
<!-- Accelerating_after_crossing_or_turning -->
<g id="node7" class="node">
<title>Accelerating_after_crossing_or_turning</title>
<ellipse fill="none" stroke="#000000" cx="252" cy="-366" rx="155.9723" ry="18"/>
<text text-anchor="middle" x="252" y="-362.3" font-family="Times,serif" font-size="14.00" fill="#000000">Accelerating_after_crossing_or_turning</text>
</g>
<!-- Car_accelerating&#45;&gt;Accelerating_after_crossing_or_turning -->
<g id="edge26" class="edge">
<title>Car_accelerating&#45;&gt;Accelerating_after_crossing_or_turning</title>
<path fill="none" stroke="#000000" d="M415.4559,-435.5192C400.1252,-422.7396 380.2899,-406.8309 371,-402 358.3969,-395.4463 344.4091,-389.8829 330.5815,-385.234"/>
<polygon fill="#000000" stroke="#000000" points="331.6447,-381.8994 321.0531,-382.1606 329.4959,-388.5614 331.6447,-381.8994"/>
<text text-anchor="middle" x="406" y="-405.8" font-family="Times,serif" font-size="14.00" fill="#000000">e_16</text>
</g>
<!-- Car_braking -->
<g id="node8" class="node">
<title>Car_braking</title>
<ellipse fill="none" stroke="#000000" cx="483" cy="-192" rx="55.7903" ry="18"/>
<text text-anchor="middle" x="483" y="-188.3" font-family="Times,serif" font-size="14.00" fill="#000000">Car_braking</text>
</g>
<!-- Car_accelerating&#45;&gt;Car_braking -->
<g id="edge27" class="edge">
<title>Car_accelerating&#45;&gt;Car_braking</title>
<path fill="none" stroke="#000000" d="M438.0531,-434.7535C442.5762,-396.2355 454.4154,-303.9221 472,-228 472.6147,-225.3459 473.3209,-222.6015 474.0726,-219.8667"/>
<polygon fill="#000000" stroke="#000000" points="477.4571,-220.7627 476.9112,-210.1819 470.7397,-218.7937 477.4571,-220.7627"/>
<text text-anchor="middle" x="464.5" y="-318.8" font-family="Times,serif" font-size="14.00" fill="#000000">e_2</text>
</g>
<!-- Car_in_a_roundabout&#45;&gt;Car_accelerating -->
<g id="edge9" class="edge">
<title>Car_in_a_roundabout&#45;&gt;Car_accelerating</title>
<path fill="none" stroke="#000000" d="M388.7827,-521.6878C387.8622,-511.5755 388.1798,-499.0636 393,-489 395.0977,-484.6205 398.0101,-480.5811 401.3402,-476.9154"/>
<polygon fill="#000000" stroke="#000000" points="403.8353,-479.3721 408.6352,-469.9268 398.9928,-474.3173 403.8353,-479.3721"/>
<text text-anchor="middle" x="403.5" y="-492.8" font-family="Times,serif" font-size="14.00" fill="#000000">e_5</text>
</g>
<!-- Car_in_a_roundabout&#45;&gt;Car_in_a_roundabout -->
<g id="edge6" class="edge">
<title>Car_in_a_roundabout&#45;&gt;Car_in_a_roundabout</title>
<path fill="none" stroke="#000000" d="M476.9398,-546.2453C490.8098,-545.3513 500.342,-543.2695 500.342,-540 500.342,-537.5989 495.2012,-535.8384 486.9769,-534.7185"/>
<polygon fill="#000000" stroke="#000000" points="487.2286,-531.2267 476.9398,-533.7547 486.5594,-538.1946 487.2286,-531.2267"/>
<text text-anchor="middle" x="510.842" y="-536.3" font-family="Times,serif" font-size="14.00" fill="#000000">e_3</text>
</g>
<!-- Car_in_a_roundabout&#45;&gt;Car_driving_at_a_constant_speed -->
<g id="edge7" class="edge">
<title>Car_in_a_roundabout&#45;&gt;Car_driving_at_a_constant_speed</title>
<path fill="none" stroke="#000000" d="M433.9574,-523.9889C482.313,-504.1034 562.38,-466.6461 619,-417 626.9357,-410.0417 634.1454,-401.084 640.049,-392.6225"/>
<polygon fill="#000000" stroke="#000000" points="643.0976,-394.3581 645.7042,-384.0889 637.2626,-390.4912 643.0976,-394.3581"/>
<text text-anchor="middle" x="604.5" y="-449.3" font-family="Times,serif" font-size="14.00" fill="#000000">e_1</text>
</g>
<!-- Car_in_a_roundabout&#45;&gt;Accelerating_after_crossing_or_turning -->
<g id="edge8" class="edge">
<title>Car_in_a_roundabout&#45;&gt;Accelerating_after_crossing_or_turning</title>
<path fill="none" stroke="#000000" d="M331.7691,-526.4674C303.3356,-516.4798 272.682,-499.4905 259,-471 247.4455,-446.9398 246.7991,-416.1451 248.3738,-394.1382"/>
<polygon fill="#000000" stroke="#000000" points="251.8657,-394.3849 249.2871,-384.1087 244.8945,-393.75 251.8657,-394.3849"/>
<text text-anchor="middle" x="273" y="-449.3" font-family="Times,serif" font-size="14.00" fill="#000000">e_14</text>
</g>
<!-- Car_in_a_roundabout&#45;&gt;Car_braking -->
<g id="edge10" class="edge">
<title>Car_in_a_roundabout&#45;&gt;Car_braking</title>
<path fill="none" stroke="#000000" d="M305.7292,-534.5872C206.4711,-525.9348 57,-504.3761 57,-453 57,-453 57,-453 57,-279 57,-242.464 300.6535,-211.4305 419.4209,-198.4737"/>
<polygon fill="#000000" stroke="#000000" points="419.912,-201.9411 429.4782,-197.3872 419.16,-194.9816 419.912,-201.9411"/>
<text text-anchor="middle" x="67.5" y="-362.3" font-family="Times,serif" font-size="14.00" fill="#000000">e_4</text>
</g>
<!-- Car_driving_at_a_constant_speed&#45;&gt;Car_accelerating -->
<g id="edge15" class="edge">
<title>Car_driving_at_a_constant_speed&#45;&gt;Car_accelerating</title>
<path fill="none" stroke="#000000" d="M593.4558,-381.9458C574.1263,-387.5396 552.9442,-394.3589 534,-402 513.3999,-410.309 491.3818,-421.5378 473.4448,-431.344"/>
<polygon fill="#000000" stroke="#000000" points="471.5165,-428.4111 464.466,-436.3194 474.9093,-434.5339 471.5165,-428.4111"/>
<text text-anchor="middle" x="548" y="-405.8" font-family="Times,serif" font-size="14.00" fill="#000000">e_12</text>
</g>
<!-- Car_driving_at_a_constant_speed&#45;&gt;Car_driving_at_a_constant_speed -->
<g id="edge14" class="edge">
<title>Car_driving_at_a_constant_speed&#45;&gt;Car_driving_at_a_constant_speed</title>
<path fill="none" stroke="#000000" d="M779.892,-373.0271C797.0617,-371.8697 808.5381,-369.5273 808.5381,-366 808.5381,-363.2167 801.3927,-361.1712 789.943,-359.8635"/>
<polygon fill="#000000" stroke="#000000" points="790.1619,-356.3692 779.892,-358.9729 789.544,-363.3419 790.1619,-356.3692"/>
<text text-anchor="middle" x="819.0381" y="-362.3" font-family="Times,serif" font-size="14.00" fill="#000000">e_1</text>
</g>
<!-- Car_driving_at_a_constant_speed&#45;&gt;Approaching_a_crossroad_or_an_obstacle -->
<g id="edge13" class="edge">
<title>Car_driving_at_a_constant_speed&#45;&gt;Approaching_a_crossroad_or_an_obstacle</title>
<path fill="none" stroke="#000000" d="M666.7922,-347.7332C669.7586,-342.1741 672.7692,-335.9563 675,-330 677.7197,-322.7383 679.9588,-314.6574 681.7357,-307.1082"/>
<polygon fill="#000000" stroke="#000000" points="685.1702,-307.7855 683.8741,-297.2702 678.3299,-306.2986 685.1702,-307.7855"/>
<text text-anchor="middle" x="693" y="-318.8" font-family="Times,serif" font-size="14.00" fill="#000000">e_18</text>
</g>
<!-- Car_driving_at_a_constant_speed&#45;&gt;Car_braking -->
<g id="edge16" class="edge">
<title>Car_driving_at_a_constant_speed&#45;&gt;Car_braking</title>
<path fill="none" stroke="#000000" d="M576.151,-351.4257C544.573,-341.4751 511.0852,-324.8165 491,-297 475.1087,-274.9917 474.9605,-243.1897 477.639,-220.359"/>
<polygon fill="#000000" stroke="#000000" points="481.1321,-220.6543 479.073,-210.2615 474.2016,-219.67 481.1321,-220.6543"/>
<text text-anchor="middle" x="501.5" y="-275.3" font-family="Times,serif" font-size="14.00" fill="#000000">e_3</text>
</g>
<!-- Approaching_a_crossroad_or_an_obstacle&#45;&gt;Car_driving_at_a_constant_speed -->
<g id="edge3" class="edge">
<title>Approaching_a_crossroad_or_an_obstacle&#45;&gt;Car_driving_at_a_constant_speed</title>
<path fill="none" stroke="#000000" d="M660.5891,-296.9689C655.0874,-302.0963 650.0408,-308.1723 647,-315 643.7954,-322.1956 643.8382,-330.4391 645.2811,-338.1707"/>
<polygon fill="#000000" stroke="#000000" points="641.9116,-339.12 647.829,-347.9084 648.6836,-337.3481 641.9116,-339.12"/>
<text text-anchor="middle" x="661" y="-318.8" font-family="Times,serif" font-size="14.00" fill="#000000">e_12</text>
</g>
<!-- Approaching_a_crossroad_or_an_obstacle&#45;&gt;Approaching_a_crossroad_or_an_obstacle -->
<g id="edge2" class="edge">
<title>Approaching_a_crossroad_or_an_obstacle&#45;&gt;Approaching_a_crossroad_or_an_obstacle</title>
<path fill="none" stroke="#000000" d="M840.7993,-285.7444C858.9224,-284.5089 870.7353,-282.2607 870.7353,-279 870.7353,-276.4016 863.234,-274.4462 851.0159,-273.1338"/>
<polygon fill="#000000" stroke="#000000" points="851.0624,-269.625 840.7993,-272.2556 850.4628,-276.5993 851.0624,-269.625"/>
<text text-anchor="middle" x="881.2353" y="-275.3" font-family="Times,serif" font-size="14.00" fill="#000000">e_1</text>
</g>
<!-- Approaching_a_crossroad_or_an_obstacle&#45;&gt;Car_braking -->
<g id="edge5" class="edge">
<title>Approaching_a_crossroad_or_an_obstacle&#45;&gt;Car_braking</title>
<path fill="none" stroke="#000000" d="M645.7176,-261.3943C611.0248,-246.5988 561.598,-225.5197 526.3389,-210.4828"/>
<polygon fill="#000000" stroke="#000000" points="527.3652,-207.1155 516.7937,-206.412 524.6191,-213.5544 527.3652,-207.1155"/>
<text text-anchor="middle" x="611" y="-231.8" font-family="Times,serif" font-size="14.00" fill="#000000">e_18</text>
</g>
<!-- Braking_before_crossing_or_turning -->
<g id="node9" class="node">
<title>Braking_before_crossing_or_turning</title>
<ellipse fill="none" stroke="#000000" cx="675" cy="-105" rx="145.6742" ry="18"/>
<text text-anchor="middle" x="675" y="-101.3" font-family="Times,serif" font-size="14.00" fill="#000000">Braking_before_crossing_or_turning</text>
</g>
<!-- Approaching_a_crossroad_or_an_obstacle&#45;&gt;Braking_before_crossing_or_turning -->
<g id="edge4" class="edge">
<title>Approaching_a_crossroad_or_an_obstacle&#45;&gt;Braking_before_crossing_or_turning</title>
<path fill="none" stroke="#000000" d="M685.7385,-260.7078C683.6444,-230.3436 679.436,-169.3226 676.9549,-133.3464"/>
<polygon fill="#000000" stroke="#000000" points="680.4244,-132.7826 676.2446,-123.0471 673.441,-133.2642 680.4244,-132.7826"/>
<text text-anchor="middle" x="692.5" y="-188.3" font-family="Times,serif" font-size="14.00" fill="#000000">e_2</text>
</g>
<!-- Car_turning -->
<g id="node6" class="node">
<title>Car_turning</title>
<ellipse fill="none" stroke="#000000" cx="675" cy="-18" rx="54.6905" ry="18"/>
<text text-anchor="middle" x="675" y="-14.3" font-family="Times,serif" font-size="14.00" fill="#000000">Car_turning</text>
</g>
<!-- Car_turning&#45;&gt;Car_in_a_roundabout -->
<g id="edge11" class="edge">
<title>Car_turning&#45;&gt;Car_in_a_roundabout</title>
<path fill="none" stroke="#000000" d="M727.6979,-22.8828C811.5561,-32.1277 966,-55.8289 966,-105 966,-453 966,-453 966,-453 966,-520.0581 889.7476,-490.8077 824,-504 762.2563,-516.3889 596.625,-527.9646 489.3181,-534.4959"/>
<polygon fill="#000000" stroke="#000000" points="488.8918,-531.0152 479.1211,-535.1121 489.3141,-538.0025 488.8918,-531.0152"/>
<text text-anchor="middle" x="980" y="-275.3" font-family="Times,serif" font-size="14.00" fill="#000000">e_11</text>
</g>
<!-- Car_turning&#45;&gt;Braking_before_crossing_or_turning -->
<g id="edge12" class="edge">
<title>Car_turning&#45;&gt;Braking_before_crossing_or_turning</title>
<path fill="none" stroke="#000000" d="M675,-36.0034C675,-47.7801 675,-63.4102 675,-76.8156"/>
<polygon fill="#000000" stroke="#000000" points="671.5001,-76.9735 675,-86.9735 678.5001,-76.9736 671.5001,-76.9735"/>
<text text-anchor="middle" x="685.5" y="-57.8" font-family="Times,serif" font-size="14.00" fill="#000000">e_1</text>
</g>
<!-- Accelerating_after_crossing_or_turning&#45;&gt;Car_accelerating -->
<g id="edge18" class="edge">
<title>Accelerating_after_crossing_or_turning&#45;&gt;Car_accelerating</title>
<path fill="none" stroke="#000000" d="M286.9292,-383.7132C297.6515,-389.3581 309.4117,-395.7619 320,-402 330.5149,-408.1948 332.1393,-411.4336 343,-417 355.7702,-423.545 370.0198,-429.6256 383.4522,-434.8564"/>
<polygon fill="#000000" stroke="#000000" points="382.4648,-438.2254 393.0559,-438.5095 384.9536,-431.6827 382.4648,-438.2254"/>
<text text-anchor="middle" x="357" y="-405.8" font-family="Times,serif" font-size="14.00" fill="#000000">e_29</text>
</g>
<!-- Accelerating_after_crossing_or_turning&#45;&gt;Car_in_a_roundabout -->
<g id="edge17" class="edge">
<title>Accelerating_after_crossing_or_turning&#45;&gt;Car_in_a_roundabout</title>
<path fill="none" stroke="#000000" d="M265.7347,-383.9897C281.8667,-405.0248 309.5363,-440.8102 334,-471 345.638,-485.3621 358.8849,-501.1611 369.778,-514.0132"/>
<polygon fill="#000000" stroke="#000000" points="367.413,-516.6351 376.5558,-521.9885 372.7469,-512.102 367.413,-516.6351"/>
<text text-anchor="middle" x="344.5" y="-449.3" font-family="Times,serif" font-size="14.00" fill="#000000">e_1</text>
</g>
<!-- Car_braking&#45;&gt;Car_in_a_roundabout -->
<g id="edge28" class="edge">
<title>Car_braking&#45;&gt;Car_in_a_roundabout</title>
<path fill="none" stroke="#000000" d="M427.1803,-193.636C357.8789,-196.6097 236.423,-204.9211 135,-228 72.9394,-242.1219 0,-269.2829 0,-279 0,-453 0,-453 0,-453 0,-498.2046 45.1124,-489.7133 88,-504 125.5628,-516.5129 222.3748,-526.6548 296.7464,-532.9472"/>
<polygon fill="#000000" stroke="#000000" points="296.8268,-536.466 307.0831,-533.8094 297.4087,-529.4902 296.8268,-536.466"/>
<text text-anchor="middle" x="10.5" y="-362.3" font-family="Times,serif" font-size="14.00" fill="#000000">e_6</text>
</g>
<!-- Car_braking&#45;&gt;Car_turning -->
<g id="edge29" class="edge">
<title>Car_braking&#45;&gt;Car_turning</title>
<path fill="none" stroke="#000000" d="M480.675,-173.9039C478.7799,-151.1112 479.0856,-111.921 499,-87 526.8353,-52.1667 574.6954,-34.8721 613.4863,-26.3112"/>
<polygon fill="#000000" stroke="#000000" points="614.5588,-29.6639 623.6475,-24.2191 613.1471,-22.8077 614.5588,-29.6639"/>
<text text-anchor="middle" x="509.5" y="-101.3" font-family="Times,serif" font-size="14.00" fill="#000000">e_1</text>
</g>
<!-- Car_braking&#45;&gt;Car_braking -->
<g id="edge30" class="edge">
<title>Car_braking&#45;&gt;Car_braking</title>
<path fill="none" stroke="#000000" d="M533.4254,-199.8058C546.7802,-199.3597 556.895,-196.7578 556.895,-192 556.895,-188.5432 551.5555,-186.2244 543.5132,-185.0437"/>
<polygon fill="#000000" stroke="#000000" points="543.6838,-181.5458 533.4254,-184.1942 543.0964,-188.5211 543.6838,-181.5458"/>
<text text-anchor="middle" x="567.395" y="-188.3" font-family="Times,serif" font-size="14.00" fill="#000000">e_3</text>
</g>
<!-- Car_braking&#45;&gt;Braking_before_crossing_or_turning -->
<g id="edge31" class="edge">
<title>Car_braking&#45;&gt;Braking_before_crossing_or_turning</title>
<path fill="none" stroke="#000000" d="M497.6933,-174.5081C507.9255,-163.3873 522.4779,-149.5267 538,-141 551.6145,-133.5212 566.851,-127.5414 582.0802,-122.7761"/>
<polygon fill="#000000" stroke="#000000" points="583.476,-126.0131 592.0698,-119.8165 581.4875,-119.3014 583.476,-126.0131"/>
<text text-anchor="middle" x="552" y="-144.8" font-family="Times,serif" font-size="14.00" fill="#000000">e_17</text>
</g>
<!-- Braking_before_crossing_or_turning&#45;&gt;Car_in_a_roundabout -->
<g id="edge19" class="edge">
<title>Braking_before_crossing_or_turning&#45;&gt;Car_in_a_roundabout</title>
<path fill="none" stroke="#000000" d="M763.1045,-119.3553C833.3436,-133.3774 920,-157.6395 920,-192 920,-453 920,-453 920,-453 920,-496.2228 640.9757,-522.5796 488.6001,-533.7506"/>
<polygon fill="#000000" stroke="#000000" points="488.0231,-530.2831 478.3021,-534.4966 488.5289,-537.2648 488.0231,-530.2831"/>
<text text-anchor="middle" x="930.5" y="-318.8" font-family="Times,serif" font-size="14.00" fill="#000000">e_4</text>
</g>
<!-- Braking_before_crossing_or_turning&#45;&gt;Car_turning -->
<g id="edge20" class="edge">
<title>Braking_before_crossing_or_turning&#45;&gt;Car_turning</title>
<path fill="none" stroke="#000000" d="M659.4169,-87.0931C655.5807,-81.6409 652.0012,-75.3901 650,-69 647.3735,-60.6133 649.606,-51.8847 653.6324,-44.0688"/>
<polygon fill="#000000" stroke="#000000" points="656.7177,-45.7342 658.9996,-35.388 650.7638,-42.053 656.7177,-45.7342"/>
<text text-anchor="middle" x="660.5" y="-57.8" font-family="Times,serif" font-size="14.00" fill="#000000">e_9</text>
</g>
<!-- Braking_before_crossing_or_turning&#45;&gt;Car_braking -->
<g id="edge22" class="edge">
<title>Braking_before_crossing_or_turning&#45;&gt;Car_braking</title>
<path fill="none" stroke="#000000" d="M640.2463,-122.5271C619.9118,-132.6195 593.6618,-145.3695 570,-156 556.4419,-162.0912 541.5392,-168.3972 527.9575,-173.9969"/>
<polygon fill="#000000" stroke="#000000" points="526.2668,-170.9071 518.3396,-177.9363 528.92,-177.3848 526.2668,-170.9071"/>
<text text-anchor="middle" x="612.5" y="-144.8" font-family="Times,serif" font-size="14.00" fill="#000000">e_6</text>
</g>
<!-- Braking_before_crossing_or_turning&#45;&gt;Braking_before_crossing_or_turning -->
<g id="edge21" class="edge">
<title>Braking_before_crossing_or_turning&#45;&gt;Braking_before_crossing_or_turning</title>
<path fill="none" stroke="#000000" d="M809.4563,-111.9232C826.9846,-110.7325 838.5871,-108.4248 838.5871,-105 838.5871,-102.2976 831.3632,-100.2907 819.7041,-98.9794"/>
<polygon fill="#000000" stroke="#000000" points="819.7248,-95.4677 809.4563,-98.0768 819.1106,-102.4407 819.7248,-95.4677"/>
<text text-anchor="middle" x="849.0871" y="-101.3" font-family="Times,serif" font-size="14.00" fill="#000000">e_2</text>
</g>
</g>
</svg>
