<?xml version="1.0" encoding="UTF-8" standalone="no"?>
<!DOCTYPE svg PUBLIC "-//W3C//DTD SVG 1.1//EN"
 "http://www.w3.org/Graphics/SVG/1.1/DTD/svg11.dtd">
<!-- Generated by graphviz version 2.40.1 (20161225.0304)
 -->
<!-- Title: %3 Pages: 1 -->
<svg width="556pt" height="378pt"
 viewBox="0.00 0.00 556.40 378.00" xmlns="http://www.w3.org/2000/svg" xmlns:xlink="http://www.w3.org/1999/xlink">
<g id="graph0" class="graph" transform="scale(1 1) rotate(0) translate(4 374)">
<title>%3</title>
<polygon fill="#ffffff" stroke="transparent" points="-4,4 -4,-374 552.3996,-374 552.3996,4 -4,4"/>
<!-- fake -->
<g id="node1" class="node">
<title>fake</title>
</g>
<!-- Car_turning -->
<g id="node4" class="node">
<title>Car_turning</title>
<ellipse fill="none" stroke="#000000" cx="245.8125" cy="-279" rx="54.6905" ry="18"/>
<text text-anchor="middle" x="245.8125" y="-275.3" font-family="Times,serif" font-size="14.00" fill="#000000">Car_turning</text>
</g>
<!-- fake&#45;&gt;Car_turning -->
<g id="edge1" class="edge">
<title>fake&#45;&gt;Car_turning</title>
<path fill="none" stroke="#000000" stroke-width="2" d="M245.8125,-333.9551C245.8125,-325.8828 245.8125,-316.1764 245.8125,-307.1817"/>
<polygon fill="#000000" stroke="#000000" stroke-width="2" points="249.3126,-307.0903 245.8125,-297.0904 242.3126,-307.0904 249.3126,-307.0903"/>
</g>
<!-- Approaching_a_crossroad_or_an_obstacle -->
<g id="node2" class="node">
<title>Approaching_a_crossroad_or_an_obstacle</title>
<ellipse fill="none" stroke="#000000" cx="184.8125" cy="-105" rx="165.9709" ry="18"/>
<text text-anchor="middle" x="184.8125" y="-101.3" font-family="Times,serif" font-size="14.00" fill="#000000">Approaching_a_crossroad_or_an_obstacle</text>
</g>
<!-- Approaching_a_crossroad_or_an_obstacle&#45;&gt;Approaching_a_crossroad_or_an_obstacle -->
<g id="edge13" class="edge">
<title>Approaching_a_crossroad_or_an_obstacle&#45;&gt;Approaching_a_crossroad_or_an_obstacle</title>
<path fill="none" stroke="#000000" d="M338.6118,-111.7444C356.7349,-110.5089 368.5478,-108.2607 368.5478,-105 368.5478,-102.4016 361.0465,-100.4462 348.8284,-99.1338"/>
<polygon fill="#000000" stroke="#000000" points="348.8749,-95.625 338.6118,-98.2556 348.2753,-102.5993 348.8749,-95.625"/>
<text text-anchor="middle" x="379.0478" y="-101.3" font-family="Times,serif" font-size="14.00" fill="#000000">e_4</text>
</g>
<!-- Accelerating_after_crossing_or_turning -->
<g id="node3" class="node">
<title>Accelerating_after_crossing_or_turning</title>
<ellipse fill="none" stroke="#000000" cx="194.8125" cy="-192" rx="155.9723" ry="18"/>
<text text-anchor="middle" x="194.8125" y="-188.3" font-family="Times,serif" font-size="14.00" fill="#000000">Accelerating_after_crossing_or_turning</text>
</g>
<!-- Approaching_a_crossroad_or_an_obstacle&#45;&gt;Accelerating_after_crossing_or_turning -->
<g id="edge10" class="edge">
<title>Approaching_a_crossroad_or_an_obstacle&#45;&gt;Accelerating_after_crossing_or_turning</title>
<path fill="none" stroke="#000000" d="M189.5231,-123.2016C190.809,-128.8663 192.0552,-135.1586 192.8125,-141 193.7727,-148.4062 194.3175,-156.4635 194.6162,-163.9406"/>
<polygon fill="#000000" stroke="#000000" points="191.1191,-164.096 194.8925,-173.9961 198.1164,-163.9038 191.1191,-164.096"/>
<text text-anchor="middle" x="207.8125" y="-144.8" font-family="Times,serif" font-size="14.00" fill="#000000">e_14</text>
</g>
<!-- Approaching_a_crossroad_or_an_obstacle&#45;&gt;Car_turning -->
<g id="edge12" class="edge">
<title>Approaching_a_crossroad_or_an_obstacle&#45;&gt;Car_turning</title>
<path fill="none" stroke="#000000" d="M107.2951,-120.9302C46.0682,-137.173 -24.0208,-166.2444 8.8125,-210 30.0705,-238.3296 122.6866,-258.8423 185.6468,-269.8215"/>
<polygon fill="#000000" stroke="#000000" points="185.4222,-273.3337 195.8686,-271.5662 186.6001,-266.4335 185.4222,-273.3337"/>
<text text-anchor="middle" x="19.3125" y="-188.3" font-family="Times,serif" font-size="14.00" fill="#000000">e_2</text>
</g>
<!-- Braking_before_crossing_or_turning -->
<g id="node5" class="node">
<title>Braking_before_crossing_or_turning</title>
<ellipse fill="none" stroke="#000000" cx="363.8125" cy="-18" rx="145.6742" ry="18"/>
<text text-anchor="middle" x="363.8125" y="-14.3" font-family="Times,serif" font-size="14.00" fill="#000000">Braking_before_crossing_or_turning</text>
</g>
<!-- Approaching_a_crossroad_or_an_obstacle&#45;&gt;Braking_before_crossing_or_turning -->
<g id="edge11" class="edge">
<title>Approaching_a_crossroad_or_an_obstacle&#45;&gt;Braking_before_crossing_or_turning</title>
<path fill="none" stroke="#000000" d="M196.9193,-86.9875C205.2311,-75.9413 217.1963,-62.3598 230.8125,-54 242.9866,-46.5256 256.7183,-40.5794 270.6186,-35.8551"/>
<polygon fill="#000000" stroke="#000000" points="271.7922,-39.1545 280.2517,-32.7759 269.6608,-32.4869 271.7922,-39.1545"/>
<text text-anchor="middle" x="244.8125" y="-57.8" font-family="Times,serif" font-size="14.00" fill="#000000">e_21</text>
</g>
<!-- Accelerating_after_crossing_or_turning&#45;&gt;Approaching_a_crossroad_or_an_obstacle -->
<g id="edge4" class="edge">
<title>Accelerating_after_crossing_or_turning&#45;&gt;Approaching_a_crossroad_or_an_obstacle</title>
<path fill="none" stroke="#000000" d="M175.5334,-173.7864C171.1687,-168.5106 167.139,-162.4258 164.8125,-156 162.0352,-148.3289 163.3648,-140.0724 166.3607,-132.4842"/>
<polygon fill="#000000" stroke="#000000" points="169.593,-133.8425 170.8632,-123.3241 163.3108,-130.7546 169.593,-133.8425"/>
<text text-anchor="middle" x="178.8125" y="-144.8" font-family="Times,serif" font-size="14.00" fill="#000000">e_29</text>
</g>
<!-- Accelerating_after_crossing_or_turning&#45;&gt;Accelerating_after_crossing_or_turning -->
<g id="edge2" class="edge">
<title>Accelerating_after_crossing_or_turning&#45;&gt;Accelerating_after_crossing_or_turning</title>
<path fill="none" stroke="#000000" d="M339.1447,-198.8357C357.0427,-197.6213 368.7987,-195.3428 368.7987,-192 368.7987,-189.3362 361.3335,-187.3482 349.244,-186.036"/>
<polygon fill="#000000" stroke="#000000" points="349.4086,-182.5373 339.1447,-185.1643 348.8066,-189.5114 349.4086,-182.5373"/>
<text text-anchor="middle" x="379.2987" y="-188.3" font-family="Times,serif" font-size="14.00" fill="#000000">e_1</text>
</g>
<!-- Accelerating_after_crossing_or_turning&#45;&gt;Car_turning -->
<g id="edge3" class="edge">
<title>Accelerating_after_crossing_or_turning&#45;&gt;Car_turning</title>
<path fill="none" stroke="#000000" d="M210.8744,-209.9779C215.3905,-215.529 220.0822,-221.8147 223.8125,-228 228.2244,-235.3155 232.2175,-243.6757 235.5532,-251.4813"/>
<polygon fill="#000000" stroke="#000000" points="232.3964,-253.0095 239.409,-260.9514 238.8796,-250.3698 232.3964,-253.0095"/>
<text text-anchor="middle" x="241.3125" y="-231.8" font-family="Times,serif" font-size="14.00" fill="#000000">e_3</text>
</g>
<!-- Car_turning&#45;&gt;Accelerating_after_crossing_or_turning -->
<g id="edge8" class="edge">
<title>Car_turning&#45;&gt;Accelerating_after_crossing_or_turning</title>
<path fill="none" stroke="#000000" d="M213.1781,-264.4978C204.6922,-259.0445 196.5974,-251.9407 191.8125,-243 188.0877,-236.0402 187.3154,-227.7555 187.8929,-219.9084"/>
<polygon fill="#000000" stroke="#000000" points="191.3604,-220.3843 189.2948,-209.9928 184.4293,-219.4044 191.3604,-220.3843"/>
<text text-anchor="middle" x="205.8125" y="-231.8" font-family="Times,serif" font-size="14.00" fill="#000000">e_18</text>
</g>
<!-- Car_turning&#45;&gt;Braking_before_crossing_or_turning -->
<g id="edge9" class="edge">
<title>Car_turning&#45;&gt;Braking_before_crossing_or_turning</title>
<path fill="none" stroke="#000000" d="M295.3396,-271.0846C330.796,-262.5502 376.123,-245.1227 398.8125,-210 432.0037,-158.621 400.978,-84.2265 379.7995,-44.827"/>
<polygon fill="#000000" stroke="#000000" points="382.8455,-43.1026 374.934,-36.0557 376.7242,-46.4982 382.8455,-43.1026"/>
<text text-anchor="middle" x="423.3125" y="-144.8" font-family="Times,serif" font-size="14.00" fill="#000000">e_4</text>
</g>
<!-- Braking_before_crossing_or_turning&#45;&gt;Approaching_a_crossroad_or_an_obstacle -->
<g id="edge7" class="edge">
<title>Braking_before_crossing_or_turning&#45;&gt;Approaching_a_crossroad_or_an_obstacle</title>
<path fill="none" stroke="#000000" d="M327.6431,-35.5796C299.5129,-49.2517 260.319,-68.3013 230.1028,-82.9874"/>
<polygon fill="#000000" stroke="#000000" points="228.4998,-79.8749 221.0358,-87.3943 231.5598,-86.1707 228.4998,-79.8749"/>
<text text-anchor="middle" x="295.3125" y="-57.8" font-family="Times,serif" font-size="14.00" fill="#000000">e_9</text>
</g>
<!-- Braking_before_crossing_or_turning&#45;&gt;Car_turning -->
<g id="edge6" class="edge">
<title>Braking_before_crossing_or_turning&#45;&gt;Car_turning</title>
<path fill="none" stroke="#000000" d="M411.1287,-35.0741C419.1936,-40.0013 426.6274,-46.2188 431.8125,-54 478.3929,-123.9018 488.1826,-180.7231 431.8125,-243 415.6189,-260.8905 356.8819,-270.0993 309.6914,-274.7011"/>
<polygon fill="#000000" stroke="#000000" points="309.1472,-271.2364 299.5115,-275.6413 309.791,-278.2067 309.1472,-271.2364"/>
<text text-anchor="middle" x="483.8125" y="-144.8" font-family="Times,serif" font-size="14.00" fill="#000000">e_16</text>
</g>
<!-- Braking_before_crossing_or_turning&#45;&gt;Braking_before_crossing_or_turning -->
<g id="edge5" class="edge">
<title>Braking_before_crossing_or_turning&#45;&gt;Braking_before_crossing_or_turning</title>
<path fill="none" stroke="#000000" d="M498.2688,-24.9232C515.7971,-23.7325 527.3996,-21.4248 527.3996,-18 527.3996,-15.2976 520.1757,-13.2907 508.5166,-11.9794"/>
<polygon fill="#000000" stroke="#000000" points="508.5373,-8.4677 498.2688,-11.0768 507.9231,-15.4407 508.5373,-8.4677"/>
<text text-anchor="middle" x="537.8996" y="-14.3" font-family="Times,serif" font-size="14.00" fill="#000000">e_4</text>
</g>
</g>
</svg>
